<svg width="287" height="71" viewBox="0 0 287 71" fill="none" xmlns="http://www.w3.org/2000/svg">
<g filter="url(#filter0_d)">
<path d="M28.725 59.545H19.815C18.935 59.545 18.2933 59.3433 17.89 58.94C17.4867 58.5367 17.285 57.895 17.285 57.015V30.56H9.75C8.87 30.56 8.22833 30.3583 7.825 29.955C7.42167 29.5517 7.22 28.91 7.22 28.03V21.375C7.22 20.8983 7.275 20.495 7.385 20.165C7.53167 19.835 7.73333 19.56 7.99 19.34L15.085 13.345C15.2683 13.1983 15.5067 13.0883 15.8 13.015C16.13 12.905 16.4783 12.85 16.845 12.85H45.885C46.765 12.85 47.4067 13.0517 47.81 13.455C48.2133 13.8583 48.415 14.5 48.415 15.38V22.035C48.415 22.5117 48.3417 22.915 48.195 23.245C48.085 23.575 47.9017 23.85 47.645 24.07L40.495 30.01C40.3483 30.1567 40.11 30.285 39.78 30.395C39.4867 30.505 39.1567 30.56 38.79 30.56H38.35V51.02C38.35 51.4967 38.2767 51.9 38.13 52.23C38.02 52.56 37.8367 52.835 37.58 53.055L30.43 58.995C30.2833 59.1417 30.045 59.27 29.715 59.38C29.4217 59.49 29.0917 59.545 28.725 59.545ZM35.82 53C36.5167 53 37.0117 52.8533 37.305 52.56C37.635 52.23 37.8 51.7167 37.8 51.02V24.015H45.885C46.5817 24.015 47.0767 23.8683 47.37 23.575C47.7 23.245 47.865 22.7317 47.865 22.035V15.38C47.865 14.6833 47.7 14.1883 47.37 13.895C47.0767 13.565 46.5817 13.4 45.885 13.4H16.845C16.1483 13.4 15.635 13.565 15.305 13.895C15.0117 14.1883 14.865 14.6833 14.865 15.38V22.035C14.865 22.7317 15.0117 23.245 15.305 23.575C15.635 23.8683 16.1483 24.015 16.845 24.015H24.93V51.02C24.93 51.7167 25.0767 52.23 25.37 52.56C25.7 52.8533 26.2133 53 26.91 53H35.82ZM31.09 48.05V18.9H19.815V18.35H42.915V18.9H31.64V48.05H31.09ZM76.1273 59.545H52.6973C51.8173 59.545 51.1756 59.3433 50.7723 58.94C50.3689 58.5367 50.1673 57.895 50.1673 57.015V50.47C50.1673 49.9933 50.2223 49.59 50.3323 49.26C50.4789 48.93 50.6806 48.655 50.9373 48.435L57.5923 42.825V30.56H52.6973C51.8173 30.56 51.1756 30.3583 50.7723 29.955C50.3689 29.5517 50.1673 28.91 50.1673 28.03V21.375C50.1673 20.8983 50.2223 20.495 50.3323 20.165C50.4789 19.835 50.6806 19.56 50.9373 19.34L58.0323 13.345C58.2156 13.1983 58.4539 13.0883 58.7473 13.015C59.0773 12.905 59.4256 12.85 59.7923 12.85H83.2223C84.1023 12.85 84.7439 13.0517 85.1473 13.455C85.5506 13.8583 85.7523 14.5 85.7523 15.38V22.035C85.7523 22.5117 85.6789 22.915 85.5323 23.245C85.4223 23.575 85.2389 23.85 84.9823 24.07L78.4373 29.57V41.945H83.2223C84.1023 41.945 84.7439 42.1467 85.1473 42.55C85.5506 42.9533 85.7523 43.595 85.7523 44.475V51.02C85.7523 51.4967 85.6789 51.9 85.5323 52.23C85.4223 52.56 85.2389 52.835 84.9823 53.055L77.8323 58.995C77.6856 59.1417 77.4473 59.27 77.1173 59.38C76.8239 59.49 76.4939 59.545 76.1273 59.545ZM59.7923 53H83.2223C83.9189 53 84.4139 52.8533 84.7073 52.56C85.0373 52.23 85.2023 51.7167 85.2023 51.02V44.475C85.2023 43.7783 85.0373 43.2833 84.7073 42.99C84.4139 42.66 83.9189 42.495 83.2223 42.495H77.8873V24.015H83.2223C83.9189 24.015 84.4139 23.8683 84.7073 23.575C85.0373 23.245 85.2023 22.7317 85.2023 22.035V15.38C85.2023 14.6833 85.0373 14.1883 84.7073 13.895C84.4139 13.565 83.9189 13.4 83.2223 13.4H59.7923C59.0956 13.4 58.5823 13.565 58.2523 13.895C57.9589 14.1883 57.8123 14.6833 57.8123 15.38V22.035C57.8123 22.7317 57.9589 23.245 58.2523 23.575C58.5823 23.8683 59.0956 24.015 59.7923 24.015H65.2373V42.495H59.7923C59.0956 42.495 58.5823 42.66 58.2523 42.99C57.9589 43.2833 57.8123 43.7783 57.8123 44.475V51.02C57.8123 51.7167 57.9589 52.23 58.2523 52.56C58.5823 52.8533 59.0956 53 59.7923 53ZM80.2523 48.05H62.7623V47.5H71.2873V18.9H62.7623V18.35H80.2523V18.9H71.8373V47.5H80.2523V48.05ZM116.832 31.825C117.492 31.825 117.968 31.6783 118.262 31.385C118.555 31.0917 119.013 30.4683 119.637 29.515L126.347 19.285C126.567 18.9183 126.805 18.68 127.062 18.57C127.355 18.4233 127.648 18.35 127.942 18.35H128.877C129.39 18.35 129.757 18.4967 129.977 18.79C130.233 19.0467 130.362 19.4683 130.362 20.055V48.05H129.812V20.055C129.812 19.7617 129.738 19.505 129.592 19.285C129.482 19.0283 129.243 18.9 128.877 18.9H128.052C127.795 18.9 127.575 18.9367 127.392 19.01C127.208 19.0833 127.007 19.3033 126.787 19.67L120.077 29.79C119.417 30.78 118.903 31.4583 118.537 31.825C118.207 32.1917 117.638 32.375 116.832 32.375C116.025 32.375 115.438 32.1917 115.072 31.825C114.742 31.4583 114.247 30.78 113.587 29.79L106.877 19.67C106.657 19.3033 106.437 19.0833 106.217 19.01C106.033 18.9367 105.813 18.9 105.557 18.9H104.732C104.365 18.9 104.127 19.0283 104.017 19.285C103.907 19.505 103.852 19.7617 103.852 20.055V48.05H103.302V20.055C103.302 19.4683 103.412 19.0467 103.632 18.79C103.888 18.4967 104.255 18.35 104.732 18.35H105.667C105.96 18.35 106.253 18.4233 106.547 18.57C106.84 18.68 107.097 18.9183 107.317 19.285L114.027 29.515C114.65 30.4683 115.108 31.0917 115.402 31.385C115.695 31.6783 116.172 31.825 116.832 31.825ZM107.647 53C108.343 53 108.838 52.8533 109.132 52.56C109.462 52.23 109.627 51.7167 109.627 51.02V31.66L112.872 37.655C113.202 38.2783 113.587 38.7367 114.027 39.03C114.503 39.2867 115.09 39.415 115.787 39.415H117.987C118.683 39.415 119.252 39.2867 119.692 39.03C120.168 38.7367 120.572 38.2783 120.902 37.655L124.147 31.66V51.02C124.147 51.7167 124.293 52.23 124.587 52.56C124.917 52.8533 125.43 53 126.127 53H134.597C135.293 53 135.788 52.8533 136.082 52.56C136.412 52.23 136.577 51.7167 136.577 51.02V15.38C136.577 14.6833 136.412 14.1883 136.082 13.895C135.788 13.565 135.293 13.4 134.597 13.4H125.687C125.1 13.4 124.605 13.5283 124.202 13.785C123.835 14.0417 123.487 14.4633 123.157 15.05L118.262 24.015C118.078 24.345 117.913 24.5833 117.767 24.73C117.657 24.8767 117.492 24.95 117.272 24.95H116.777C116.557 24.95 116.373 24.8767 116.227 24.73C116.117 24.5833 115.97 24.345 115.787 24.015L110.837 15.05C110.507 14.4633 110.14 14.0417 109.737 13.785C109.37 13.5283 108.893 13.4 108.307 13.4H99.4516C98.7549 13.4 98.2416 13.565 97.9116 13.895C97.6182 14.1883 97.4716 14.6833 97.4716 15.38V51.02C97.4716 51.7167 97.6182 52.23 97.9116 52.56C98.2416 52.8533 98.7549 53 99.4516 53H107.647ZM109.407 53.055L102.257 58.995C102.11 59.1417 101.872 59.27 101.542 59.38C101.248 59.49 100.918 59.545 100.552 59.545H92.3566C91.4766 59.545 90.8349 59.3433 90.4316 58.94C90.0282 58.5367 89.8266 57.895 89.8266 57.015V21.375C89.8266 20.8983 89.8816 20.495 89.9916 20.165C90.1382 19.835 90.3399 19.56 90.5966 19.34L97.6916 13.345C97.8749 13.1983 98.1132 13.0883 98.4066 13.015C98.7366 12.905 99.0849 12.85 99.4516 12.85H108.307C109.003 12.85 109.572 12.9967 110.012 13.29C110.488 13.5833 110.928 14.0783 111.332 14.775L115.072 21.65L115.567 20.77C115.713 20.5133 115.86 20.275 116.007 20.055C116.19 19.7983 116.373 19.5967 116.557 19.45L123.652 13.51C123.945 13.29 124.238 13.125 124.532 13.015C124.862 12.905 125.247 12.85 125.687 12.85H134.597C135.477 12.85 136.118 13.0517 136.522 13.455C136.925 13.8583 137.127 14.5 137.127 15.38V51.02C137.127 51.4967 137.053 51.9 136.907 52.23C136.797 52.56 136.613 52.835 136.357 53.055L129.207 58.995C129.06 59.1417 128.822 59.27 128.492 59.38C128.198 59.49 127.868 59.545 127.502 59.545H119.032C118.115 59.545 117.455 59.3433 117.052 58.94C116.685 58.5367 116.502 57.895 116.502 57.015V42.495L113.257 45.19C112.963 45.4467 112.615 45.6483 112.212 45.795C111.845 45.905 111.405 45.96 110.892 45.96H110.177V51.02C110.177 51.4967 110.103 51.9 109.957 52.23C109.847 52.56 109.663 52.835 109.407 53.055ZM170.084 59.545H144.564C143.684 59.545 143.042 59.3433 142.639 58.94C142.235 58.5367 142.034 57.895 142.034 57.015V21.375C142.034 20.8983 142.089 20.495 142.199 20.165C142.345 19.835 142.547 19.56 142.804 19.34L149.899 13.345C150.082 13.1983 150.32 13.0883 150.614 13.015C150.944 12.905 151.292 12.85 151.659 12.85H177.179C178.059 12.85 178.7 13.0517 179.104 13.455C179.507 13.8583 179.709 14.5 179.709 15.38V21.815C179.709 22.2917 179.635 22.695 179.489 23.025C179.379 23.355 179.195 23.63 178.939 23.85L174.209 27.755C174.575 27.9383 174.832 28.2133 174.979 28.58C175.162 28.9467 175.254 29.4233 175.254 30.01V35.895C175.254 36.3717 175.18 36.775 175.034 37.105C174.924 37.435 174.74 37.71 174.484 37.93L169.589 42.055H177.179C178.059 42.055 178.7 42.2567 179.104 42.66C179.507 43.0633 179.709 43.705 179.709 44.585V51.02C179.709 51.4967 179.635 51.9 179.489 52.23C179.379 52.56 179.195 52.835 178.939 53.055L171.789 58.995C171.642 59.1417 171.404 59.27 171.074 59.38C170.78 59.49 170.45 59.545 170.084 59.545ZM177.179 53C177.875 53 178.37 52.8533 178.664 52.56C178.994 52.23 179.159 51.7167 179.159 51.02V44.585C179.159 43.8883 178.994 43.3933 178.664 43.1C178.37 42.77 177.875 42.605 177.179 42.605H161.999V37.875H172.724C173.42 37.875 173.915 37.7283 174.209 37.435C174.539 37.105 174.704 36.5917 174.704 35.895V30.01C174.704 29.3133 174.539 28.8183 174.209 28.525C173.915 28.195 173.42 28.03 172.724 28.03H161.999V23.795H177.179C177.875 23.795 178.37 23.6483 178.664 23.355C178.994 23.025 179.159 22.5117 179.159 21.815V15.38C179.159 14.6833 178.994 14.1883 178.664 13.895C178.37 13.565 177.875 13.4 177.179 13.4H151.659C150.962 13.4 150.449 13.565 150.119 13.895C149.825 14.1883 149.679 14.6833 149.679 15.38V51.02C149.679 51.7167 149.825 52.23 150.119 52.56C150.449 52.8533 150.962 53 151.659 53H177.179ZM174.209 47.5V48.05H155.674V18.35H174.209V18.9H156.224V32.705H169.754V33.255H156.224V47.5H174.209ZM226.464 59.545H203.034C202.154 59.545 201.513 59.3433 201.109 58.94C200.706 58.5367 200.504 57.895 200.504 57.015V50.47C200.504 49.9933 200.559 49.59 200.669 49.26C200.816 48.93 201.018 48.655 201.274 48.435L207.929 42.825V30.56H203.034C202.154 30.56 201.513 30.3583 201.109 29.955C200.706 29.5517 200.504 28.91 200.504 28.03V21.375C200.504 20.8983 200.559 20.495 200.669 20.165C200.816 19.835 201.018 19.56 201.274 19.34L208.369 13.345C208.553 13.1983 208.791 13.0883 209.084 13.015C209.414 12.905 209.763 12.85 210.129 12.85H233.559C234.439 12.85 235.081 13.0517 235.484 13.455C235.888 13.8583 236.089 14.5 236.089 15.38V22.035C236.089 22.5117 236.016 22.915 235.869 23.245C235.759 23.575 235.576 23.85 235.319 24.07L228.774 29.57V41.945H233.559C234.439 41.945 235.081 42.1467 235.484 42.55C235.888 42.9533 236.089 43.595 236.089 44.475V51.02C236.089 51.4967 236.016 51.9 235.869 52.23C235.759 52.56 235.576 52.835 235.319 53.055L228.169 58.995C228.023 59.1417 227.784 59.27 227.454 59.38C227.161 59.49 226.831 59.545 226.464 59.545ZM210.129 53H233.559C234.256 53 234.751 52.8533 235.044 52.56C235.374 52.23 235.539 51.7167 235.539 51.02V44.475C235.539 43.7783 235.374 43.2833 235.044 42.99C234.751 42.66 234.256 42.495 233.559 42.495H228.224V24.015H233.559C234.256 24.015 234.751 23.8683 235.044 23.575C235.374 23.245 235.539 22.7317 235.539 22.035V15.38C235.539 14.6833 235.374 14.1883 235.044 13.895C234.751 13.565 234.256 13.4 233.559 13.4H210.129C209.433 13.4 208.919 13.565 208.589 13.895C208.296 14.1883 208.149 14.6833 208.149 15.38V22.035C208.149 22.7317 208.296 23.245 208.589 23.575C208.919 23.8683 209.433 24.015 210.129 24.015H215.574V42.495H210.129C209.433 42.495 208.919 42.66 208.589 42.99C208.296 43.2833 208.149 43.7783 208.149 44.475V51.02C208.149 51.7167 208.296 52.23 208.589 52.56C208.919 52.8533 209.433 53 210.129 53ZM230.589 48.05H213.099V47.5H221.624V18.9H213.099V18.35H230.589V18.9H222.174V47.5H230.589V48.05ZM259.413 59.545H250.503C249.623 59.545 248.982 59.3433 248.578 58.94C248.175 58.5367 247.973 57.895 247.973 57.015V30.56H240.438C239.558 30.56 238.917 30.3583 238.513 29.955C238.11 29.5517 237.908 28.91 237.908 28.03V21.375C237.908 20.8983 237.963 20.495 238.073 20.165C238.22 19.835 238.422 19.56 238.678 19.34L245.773 13.345C245.957 13.1983 246.195 13.0883 246.488 13.015C246.818 12.905 247.167 12.85 247.533 12.85H276.573C277.453 12.85 278.095 13.0517 278.498 13.455C278.902 13.8583 279.103 14.5 279.103 15.38V22.035C279.103 22.5117 279.03 22.915 278.883 23.245C278.773 23.575 278.59 23.85 278.333 24.07L271.183 30.01C271.037 30.1567 270.798 30.285 270.468 30.395C270.175 30.505 269.845 30.56 269.478 30.56H269.038V51.02C269.038 51.4967 268.965 51.9 268.818 52.23C268.708 52.56 268.525 52.835 268.268 53.055L261.118 58.995C260.972 59.1417 260.733 59.27 260.403 59.38C260.11 59.49 259.78 59.545 259.413 59.545ZM266.508 53C267.205 53 267.7 52.8533 267.993 52.56C268.323 52.23 268.488 51.7167 268.488 51.02V24.015H276.573C277.27 24.015 277.765 23.8683 278.058 23.575C278.388 23.245 278.553 22.7317 278.553 22.035V15.38C278.553 14.6833 278.388 14.1883 278.058 13.895C277.765 13.565 277.27 13.4 276.573 13.4H247.533C246.837 13.4 246.323 13.565 245.993 13.895C245.7 14.1883 245.553 14.6833 245.553 15.38V22.035C245.553 22.7317 245.7 23.245 245.993 23.575C246.323 23.8683 246.837 24.015 247.533 24.015H255.618V51.02C255.618 51.7167 255.765 52.23 256.058 52.56C256.388 52.8533 256.902 53 257.598 53H266.508ZM261.778 48.05V18.9H250.503V18.35H273.603V18.9H262.328V48.05H261.778Z" fill="#364F6B"/>
<path d="M17.89 58.94L20.0113 56.8187H20.0113L17.89 58.94ZM17.285 30.56H20.285V27.56H17.285V30.56ZM7.825 29.955L9.94632 27.8337L9.94632 27.8337L7.825 29.955ZM7.385 20.165L4.64357 18.9466L4.58475 19.0789L4.53895 19.2163L7.385 20.165ZM7.99 19.34L6.05377 17.0485L6.04567 17.0553L6.03762 17.0622L7.99 19.34ZM15.085 13.345L13.2109 11.0024L13.1795 11.0275L13.1488 11.0535L15.085 13.345ZM15.8 13.015L16.5276 15.9254L16.6394 15.8975L16.7487 15.8611L15.8 13.015ZM47.81 13.455L49.9313 11.3337L49.9313 11.3337L47.81 13.455ZM48.195 23.245L45.4536 22.0266L45.3947 22.1589L45.3489 22.2963L48.195 23.245ZM47.645 24.07L49.5621 26.3776L49.5798 26.3628L49.5974 26.3478L47.645 24.07ZM40.495 30.01L38.5779 27.7024L38.4715 27.7908L38.3737 27.8887L40.495 30.01ZM39.78 30.395L38.8313 27.549L38.7786 27.5665L38.7266 27.586L39.78 30.395ZM38.35 30.56V27.56H35.35V30.56H38.35ZM38.13 52.23L35.3886 51.0116L35.3298 51.1439L35.284 51.2813L38.13 52.23ZM37.58 53.055L39.4971 55.3626L39.5148 55.3478L39.5324 55.3328L37.58 53.055ZM30.43 58.995L28.5129 56.6874L28.4065 56.7758L28.3087 56.8737L30.43 58.995ZM29.715 59.38L28.7663 56.534L28.7136 56.5515L28.6616 56.571L29.715 59.38ZM37.305 52.56L35.1837 50.4387L35.1837 50.4387L37.305 52.56ZM37.8 24.015V21.015H34.8V24.015H37.8ZM47.37 13.895L45.1278 15.8881L45.245 16.02L45.3769 16.1372L47.37 13.895ZM15.305 13.895L13.1837 11.7737L13.1837 11.7737L15.305 13.895ZM15.305 23.575L13.0628 25.5681L13.18 25.7L13.3119 25.8172L15.305 23.575ZM24.93 24.015H27.93V21.015H24.93V24.015ZM25.37 52.56L23.1278 54.5531L23.245 54.685L23.3769 54.8022L25.37 52.56ZM31.09 48.05H28.09V51.05H31.09V48.05ZM31.09 18.9H34.09V15.9H31.09V18.9ZM19.815 18.9H16.815V21.9H19.815V18.9ZM19.815 18.35V15.35H16.815V18.35H19.815ZM42.915 18.35H45.915V15.35H42.915V18.35ZM42.915 18.9V21.9H45.915V18.9H42.915ZM31.64 18.9V15.9H28.64V18.9H31.64ZM31.64 48.05V51.05H34.64V48.05H31.64ZM28.725 56.545H19.815V62.545H28.725V56.545ZM19.815 56.545C19.5916 56.545 19.5292 56.5179 19.5732 56.5318C19.6309 56.5499 19.815 56.6224 20.0113 56.8187L15.7687 61.0613C16.9755 62.2682 18.5613 62.545 19.815 62.545V56.545ZM20.0113 56.8187C20.2076 57.015 20.2801 57.1991 20.2982 57.2568C20.3121 57.3008 20.285 57.2384 20.285 57.015H14.285C14.285 58.2687 14.5618 59.8545 15.7687 61.0613L20.0113 56.8187ZM20.285 57.015V30.56H14.285V57.015H20.285ZM17.285 27.56H9.75V33.56H17.285V27.56ZM9.75 27.56C9.52664 27.56 9.46417 27.5329 9.50823 27.5468C9.56593 27.5649 9.75001 27.6374 9.94632 27.8337L5.70368 32.0763C6.91053 33.2832 8.49629 33.56 9.75 33.56V27.56ZM9.94632 27.8337C10.1426 28.03 10.2151 28.2141 10.2332 28.2718C10.2471 28.3158 10.22 28.2534 10.22 28.03H4.22C4.22 29.2837 4.49682 30.8695 5.70368 32.0763L9.94632 27.8337ZM10.22 28.03V21.375H4.22V28.03H10.22ZM10.22 21.375C10.22 21.25 10.2273 21.1673 10.2337 21.1203C10.2402 21.073 10.2439 21.0751 10.2311 21.1137L4.53895 19.2163C4.29704 19.942 4.22 20.6866 4.22 21.375H10.22ZM10.1264 21.3834C10.1177 21.4031 10.0988 21.4398 10.0655 21.4853C10.0317 21.5314 9.98996 21.577 9.94238 21.6178L6.03762 17.0622C5.41969 17.5919 4.95867 18.2376 4.64357 18.9466L10.1264 21.3834ZM9.92623 21.6315L17.0212 15.6365L13.1488 11.0535L6.05377 17.0485L9.92623 21.6315ZM16.9591 15.6876C16.7233 15.8762 16.5369 15.9231 16.5276 15.9254L15.0724 10.1046C14.4764 10.2536 13.8134 10.5204 13.2109 11.0024L16.9591 15.6876ZM16.7487 15.8611C16.7566 15.8584 16.7832 15.85 16.845 15.85V9.85C16.1734 9.85 15.5034 9.95158 14.8513 10.1689L16.7487 15.8611ZM16.845 15.85H45.885V9.85H16.845V15.85ZM45.885 15.85C46.1084 15.85 46.1708 15.8771 46.1268 15.8632C46.0691 15.8451 45.885 15.7726 45.6887 15.5763L49.9313 11.3337C48.7245 10.1268 47.1387 9.85 45.885 9.85V15.85ZM45.6887 15.5763C45.4924 15.38 45.4199 15.1959 45.4018 15.1382C45.3879 15.0942 45.415 15.1566 45.415 15.38H51.415C51.415 14.1263 51.1382 12.5405 49.9313 11.3337L45.6887 15.5763ZM45.415 15.38V22.035H51.415V15.38H45.415ZM45.415 22.035C45.415 22.0775 45.4134 22.1087 45.4116 22.1296C45.4099 22.1505 45.4082 22.1596 45.4084 22.1583C45.4088 22.1562 45.418 22.1067 45.4536 22.0266L50.9364 24.4634C51.2988 23.6481 51.415 22.8036 51.415 22.035H45.415ZM45.3489 22.2963C45.3738 22.2216 45.415 22.1304 45.4789 22.0346C45.543 21.9385 45.6173 21.8568 45.6926 21.7922L49.5974 26.3478C50.2793 25.7633 50.7643 25.0238 51.0411 24.1937L45.3489 22.2963ZM45.7279 21.7624L38.5779 27.7024L42.4121 32.3176L49.5621 26.3776L45.7279 21.7624ZM38.3737 27.8887C38.5587 27.7037 38.7197 27.6094 38.784 27.5748C38.8522 27.5381 38.8764 27.5339 38.8313 27.549L40.7287 33.241C41.2388 33.071 41.989 32.7586 42.6163 32.1313L38.3737 27.8887ZM38.7266 27.586C38.8222 27.5502 38.8571 27.56 38.79 27.56V33.56C39.4563 33.56 40.1511 33.4598 40.8334 33.204L38.7266 27.586ZM38.79 27.56H38.35V33.56H38.79V27.56ZM35.35 30.56V51.02H41.35V30.56H35.35ZM35.35 51.02C35.35 51.0625 35.3484 51.0937 35.3466 51.1146C35.3449 51.1355 35.3432 51.1446 35.3434 51.1433C35.3438 51.1412 35.353 51.0917 35.3886 51.0116L40.8714 53.4484C41.2338 52.6331 41.35 51.7886 41.35 51.02H35.35ZM35.284 51.2813C35.3088 51.2066 35.35 51.1154 35.4139 51.0196C35.478 50.9235 35.5523 50.8418 35.6276 50.7772L39.5324 55.3328C40.2143 54.7483 40.6993 54.0088 40.9761 53.1787L35.284 51.2813ZM35.6629 50.7474L28.5129 56.6874L32.3471 61.3026L39.4971 55.3626L35.6629 50.7474ZM28.3087 56.8737C28.4936 56.6887 28.6547 56.5944 28.719 56.5598C28.7872 56.5231 28.8114 56.5189 28.7663 56.534L30.6637 62.2261C31.1738 62.056 31.924 61.7436 32.5513 61.1163L28.3087 56.8737ZM28.6616 56.571C28.7572 56.5352 28.7921 56.545 28.725 56.545V62.545C29.3913 62.545 30.0861 62.4448 30.7684 62.189L28.6616 56.571ZM35.82 56C36.8029 56 38.291 55.8166 39.4263 54.6813L35.1837 50.4387C35.4668 50.1556 35.745 50.0481 35.8615 50.0136C35.968 49.982 35.9734 50 35.82 50V56ZM39.4263 54.6813C40.5441 53.5635 40.8 52.1241 40.8 51.02H34.8C34.8 51.1427 34.7841 51.1216 34.8202 51.0095C34.8608 50.8831 34.9628 50.6596 35.1837 50.4387L39.4263 54.6813ZM40.8 51.02V24.015H34.8V51.02H40.8ZM37.8 27.015H45.885V21.015H37.8V27.015ZM45.885 27.015C46.8679 27.015 48.356 26.8316 49.4913 25.6963L45.2487 21.4537C45.5318 21.1705 45.81 21.0631 45.9265 21.0286C46.033 20.997 46.0384 21.015 45.885 21.015V27.015ZM49.4913 25.6963C50.6091 24.5785 50.865 23.1391 50.865 22.035H44.865C44.865 22.1577 44.8491 22.1366 44.8852 22.0245C44.9258 21.8981 45.0278 21.6746 45.2487 21.4537L49.4913 25.6963ZM50.865 22.035V15.38H44.865V22.035H50.865ZM50.865 15.38C50.865 14.3147 50.6251 12.7746 49.3631 11.6528L45.3769 16.1372C45.0832 15.8761 44.9485 15.5948 44.8952 15.4349C44.848 15.2934 44.865 15.253 44.865 15.38H50.865ZM49.6122 11.9019C48.4904 10.6399 46.9503 10.4 45.885 10.4V16.4C46.012 16.4 45.9716 16.417 45.8301 16.3698C45.6702 16.3165 45.3889 16.1818 45.1278 15.8881L49.6122 11.9019ZM45.885 10.4H16.845V16.4H45.885V10.4ZM16.845 10.4C15.7409 10.4 14.3015 10.6559 13.1837 11.7737L17.4263 16.0163C17.2054 16.2372 16.9819 16.3392 16.8555 16.3798C16.7434 16.4159 16.7223 16.4 16.845 16.4V10.4ZM13.1837 11.7737C12.0484 12.909 11.865 14.3971 11.865 15.38H17.865C17.865 15.2266 17.883 15.232 17.8514 15.3385C17.8169 15.455 17.7095 15.7332 17.4263 16.0163L13.1837 11.7737ZM11.865 15.38V22.035H17.865V15.38H11.865ZM11.865 22.035C11.865 23.0624 12.0669 24.4477 13.0628 25.5681L17.5472 21.5819C17.7557 21.8165 17.8347 22.0313 17.8596 22.1183C17.882 22.1969 17.865 22.1844 17.865 22.035H11.865ZM13.3119 25.8172C14.4323 26.8131 15.8176 27.015 16.845 27.015V21.015C16.6956 21.015 16.6831 20.998 16.7617 21.0204C16.8487 21.0453 17.0635 21.1243 17.2981 21.3328L13.3119 25.8172ZM16.845 27.015H24.93V21.015H16.845V27.015ZM21.93 24.015V51.02H27.93V24.015H21.93ZM21.93 51.02C21.93 52.0474 22.1319 53.4327 23.1278 54.5531L27.6122 50.5669C27.8207 50.8015 27.8997 51.0163 27.9246 51.1033C27.947 51.1819 27.93 51.1694 27.93 51.02H21.93ZM23.3769 54.8022C24.4973 55.7981 25.8826 56 26.91 56V50C26.7606 50 26.7481 49.983 26.8267 50.0054C26.9137 50.0303 27.1285 50.1093 27.3631 50.3178L23.3769 54.8022ZM26.91 56H35.82V50H26.91V56ZM34.09 48.05V18.9H28.09V48.05H34.09ZM31.09 15.9H19.815V21.9H31.09V15.9ZM22.815 18.9V18.35H16.815V18.9H22.815ZM19.815 21.35H42.915V15.35H19.815V21.35ZM39.915 18.35V18.9H45.915V18.35H39.915ZM42.915 15.9H31.64V21.9H42.915V15.9ZM28.64 18.9V48.05H34.64V18.9H28.64ZM31.64 45.05H31.09V51.05H31.64V45.05ZM50.7723 58.94L52.8936 56.8187L50.7723 58.94ZM50.3323 49.26L47.5908 48.0416L47.532 48.1739L47.4862 48.3113L50.3323 49.26ZM50.9373 48.435L49.0037 46.1413L48.9943 46.1492L48.9849 46.1572L50.9373 48.435ZM57.5923 42.825L59.5258 45.1188L60.5923 44.2198V42.825H57.5923ZM57.5923 30.56H60.5923V27.56H57.5923V30.56ZM50.7723 29.955L52.8936 27.8337V27.8337L50.7723 29.955ZM50.3323 20.165L47.5908 18.9466L47.532 19.0789L47.4862 19.2163L50.3323 20.165ZM50.9373 19.34L49.001 17.0485L48.9929 17.0553L48.9849 17.0622L50.9373 19.34ZM58.0323 13.345L56.1582 11.0024L56.1268 11.0275L56.096 11.0535L58.0323 13.345ZM58.7473 13.015L59.4749 15.9254L59.5866 15.8975L59.6959 15.8611L58.7473 13.015ZM85.5323 23.245L82.7908 22.0266L82.732 22.1589L82.6862 22.2963L85.5323 23.245ZM84.9823 24.07L86.9123 26.3667L86.9235 26.3573L86.9346 26.3478L84.9823 24.07ZM78.4373 29.57L76.5072 27.2733L75.4373 28.1724V29.57H78.4373ZM78.4373 41.945H75.4373V44.945H78.4373V41.945ZM85.1473 42.55L83.0259 44.6713V44.6713L85.1473 42.55ZM85.5323 52.23L82.7908 51.0116L82.732 51.1439L82.6862 51.2813L85.5323 52.23ZM84.9823 53.055L86.8993 55.3626L86.9171 55.3478L86.9346 55.3328L84.9823 53.055ZM77.8323 58.995L75.9152 56.6874L75.8088 56.7758L75.7109 56.8737L77.8323 58.995ZM77.1173 59.38L76.1686 56.534L76.1159 56.5515L76.0639 56.571L77.1173 59.38ZM84.7073 52.56L82.5859 50.4387L82.5859 50.4387L84.7073 52.56ZM84.7073 42.99L82.465 44.9831L82.5823 45.115L82.7142 45.2322L84.7073 42.99ZM77.8873 42.495H74.8873V45.495H77.8873V42.495ZM77.8873 24.015V21.015H74.8873V24.015H77.8873ZM84.7073 23.575L82.5859 21.4537L82.5859 21.4537L84.7073 23.575ZM84.7073 13.895L82.465 15.8881L82.5823 16.02L82.7142 16.1372L84.7073 13.895ZM58.2523 13.895L56.1309 11.7737V11.7737L58.2523 13.895ZM58.2523 23.575L56.01 25.5681L56.1273 25.7L56.2592 25.8172L58.2523 23.575ZM65.2373 24.015H68.2373V21.015H65.2373V24.015ZM65.2373 42.495V45.495H68.2373V42.495H65.2373ZM58.2523 42.99L60.3736 45.1113V45.1113L58.2523 42.99ZM58.2523 52.56L56.01 54.5531L56.1273 54.685L56.2592 54.8022L58.2523 52.56ZM80.2523 48.05V51.05H83.2523V48.05H80.2523ZM62.7623 48.05H59.7623V51.05H62.7623V48.05ZM62.7623 47.5V44.5H59.7623V47.5H62.7623ZM71.2873 47.5V50.5H74.2873V47.5H71.2873ZM71.2873 18.9H74.2873V15.9H71.2873V18.9ZM62.7623 18.9H59.7623V21.9H62.7623V18.9ZM62.7623 18.35V15.35H59.7623V18.35H62.7623ZM80.2523 18.35H83.2523V15.35H80.2523V18.35ZM80.2523 18.9V21.9H83.2523V18.9H80.2523ZM71.8373 18.9V15.9H68.8373V18.9H71.8373ZM71.8373 47.5H68.8373V50.5H71.8373V47.5ZM80.2523 47.5H83.2523V44.5H80.2523V47.5ZM76.1273 56.545H52.6973V62.545H76.1273V56.545ZM52.6973 56.545C52.4739 56.545 52.4114 56.5179 52.4555 56.5318C52.5132 56.5499 52.6973 56.6224 52.8936 56.8187L48.6509 61.0613C49.8578 62.2682 51.4436 62.545 52.6973 62.545V56.545ZM52.8936 56.8187C53.0899 57.015 53.1624 57.1991 53.1805 57.2568C53.1943 57.3008 53.1673 57.2384 53.1673 57.015H47.1673C47.1673 58.2687 47.4441 59.8545 48.6509 61.0613L52.8936 56.8187ZM53.1673 57.015V50.47H47.1673V57.015H53.1673ZM53.1673 50.47C53.1673 50.345 53.1746 50.2623 53.181 50.2153C53.1875 50.168 53.1912 50.1701 53.1783 50.2087L47.4862 48.3113C47.2443 49.037 47.1673 49.7816 47.1673 50.47H53.1673ZM53.0737 50.4784C53.0649 50.4981 53.0461 50.5348 53.0127 50.5803C52.9789 50.6264 52.9372 50.672 52.8896 50.7128L48.9849 46.1572C48.367 46.6869 47.9059 47.3326 47.5908 48.0416L53.0737 50.4784ZM52.8708 50.7287L59.5258 45.1188L55.6587 40.5312L49.0037 46.1413L52.8708 50.7287ZM60.5923 42.825V30.56H54.5923V42.825H60.5923ZM57.5923 27.56H52.6973V33.56H57.5923V27.56ZM52.6973 27.56C52.4739 27.56 52.4114 27.5329 52.4555 27.5468C52.5132 27.5649 52.6973 27.6374 52.8936 27.8337L48.6509 32.0763C49.8578 33.2832 51.4436 33.56 52.6973 33.56V27.56ZM52.8936 27.8337C53.0899 28.03 53.1624 28.2141 53.1805 28.2718C53.1943 28.3158 53.1673 28.2534 53.1673 28.03H47.1673C47.1673 29.2837 47.4441 30.8695 48.6509 32.0763L52.8936 27.8337ZM53.1673 28.03V21.375H47.1673V28.03H53.1673ZM53.1673 21.375C53.1673 21.25 53.1746 21.1673 53.181 21.1203C53.1875 21.073 53.1912 21.0751 53.1783 21.1137L47.4862 19.2163C47.2443 19.942 47.1673 20.6866 47.1673 21.375H53.1673ZM53.0737 21.3834C53.0649 21.4031 53.0461 21.4398 53.0127 21.4853C52.979 21.5314 52.9372 21.577 52.8896 21.6178L48.9849 17.0622C48.367 17.5919 47.9059 18.2376 47.5908 18.9466L53.0737 21.3834ZM52.8735 21.6315L59.9685 15.6365L56.096 11.0535L49.001 17.0485L52.8735 21.6315ZM59.9064 15.6876C59.6706 15.8762 59.4842 15.9231 59.4749 15.9254L58.0196 10.1046C57.4237 10.2536 56.7606 10.5204 56.1582 11.0024L59.9064 15.6876ZM59.6959 15.8611C59.7038 15.8584 59.7305 15.85 59.7923 15.85V9.85C59.1207 9.85 58.4507 9.95158 57.7986 10.1689L59.6959 15.8611ZM59.7923 15.85H83.2223V9.85H59.7923V15.85ZM83.2223 15.85C83.4456 15.85 83.5081 15.8771 83.464 15.8632C83.4063 15.8451 83.2223 15.7726 83.0259 15.5763L87.2686 11.3337C86.0617 10.1268 84.476 9.85 83.2223 9.85V15.85ZM83.0259 15.5763C82.8296 15.38 82.7572 15.1959 82.739 15.1382C82.7252 15.0942 82.7523 15.1566 82.7523 15.38H88.7523C88.7523 14.1263 88.4754 12.5405 87.2686 11.3337L83.0259 15.5763ZM82.7523 15.38V22.035H88.7523V15.38H82.7523ZM82.7523 22.035C82.7523 22.0775 82.7506 22.1087 82.7489 22.1296C82.7471 22.1505 82.7454 22.1596 82.7457 22.1583C82.746 22.1562 82.7552 22.1067 82.7908 22.0266L88.2737 24.4634C88.6361 23.6481 88.7523 22.8036 88.7523 22.035H82.7523ZM82.6862 22.2963C82.7111 22.2216 82.7523 22.1304 82.8161 22.0346C82.8802 21.9385 82.9545 21.8568 83.0299 21.7922L86.9346 26.3478C87.6165 25.7633 88.1016 25.0238 88.3783 24.1937L82.6862 22.2963ZM83.0522 21.7733L76.5072 27.2733L80.3673 31.8667L86.9123 26.3667L83.0522 21.7733ZM75.4373 29.57V41.945H81.4373V29.57H75.4373ZM78.4373 44.945H83.2223V38.945H78.4373V44.945ZM83.2223 44.945C83.4456 44.945 83.5081 44.9721 83.464 44.9582C83.4063 44.9401 83.2223 44.8676 83.0259 44.6713L87.2686 40.4287C86.0617 39.2218 84.476 38.945 83.2223 38.945V44.945ZM83.0259 44.6713C82.8296 44.475 82.7572 44.2909 82.739 44.2332C82.7252 44.1892 82.7523 44.2516 82.7523 44.475H88.7523C88.7523 43.2213 88.4754 41.6355 87.2686 40.4287L83.0259 44.6713ZM82.7523 44.475V51.02H88.7523V44.475H82.7523ZM82.7523 51.02C82.7523 51.0625 82.7506 51.0937 82.7489 51.1146C82.7471 51.1355 82.7454 51.1446 82.7457 51.1433C82.746 51.1412 82.7552 51.0917 82.7908 51.0116L88.2737 53.4484C88.6361 52.6331 88.7523 51.7886 88.7523 51.02H82.7523ZM82.6862 51.2813C82.7111 51.2066 82.7523 51.1154 82.8161 51.0196C82.8802 50.9235 82.9545 50.8418 83.0299 50.7772L86.9346 55.3328C87.6165 54.7483 88.1016 54.0088 88.3783 53.1787L82.6862 51.2813ZM83.0652 50.7474L75.9152 56.6874L79.7493 61.3026L86.8993 55.3626L83.0652 50.7474ZM75.7109 56.8737C75.8959 56.6887 76.057 56.5944 76.1212 56.5598C76.1894 56.5231 76.2137 56.5189 76.1686 56.534L78.066 62.226C78.5761 62.056 79.3263 61.7436 79.9536 61.1163L75.7109 56.8737ZM76.0639 56.571C76.1595 56.5352 76.1943 56.545 76.1273 56.545V62.545C76.7935 62.545 77.4884 62.4448 78.1706 62.189L76.0639 56.571ZM59.7923 56H83.2223V50H59.7923V56ZM83.2223 56C84.2052 56 85.6933 55.8166 86.8286 54.6813L82.5859 50.4387C82.8691 50.1556 83.1473 50.0481 83.2637 50.0136C83.3703 49.982 83.3757 50 83.2223 50V56ZM86.8286 54.6813C87.9464 53.5635 88.2023 52.1241 88.2023 51.02H82.2023C82.2023 51.1427 82.1864 51.1216 82.2224 51.0095C82.2631 50.8831 82.365 50.6596 82.5859 50.4387L86.8286 54.6813ZM88.2023 51.02V44.475H82.2023V51.02H88.2023ZM88.2023 44.475C88.2023 43.4097 87.9624 41.8696 86.7004 40.7478L82.7142 45.2322C82.4205 44.9711 82.2857 44.6898 82.2325 44.5299C82.1853 44.3884 82.2023 44.348 82.2023 44.475H88.2023ZM86.9495 40.9969C85.8277 39.7349 84.2876 39.495 83.2223 39.495V45.495C83.3493 45.495 83.3088 45.512 83.1673 45.4648C83.0075 45.4115 82.7261 45.2768 82.465 44.9831L86.9495 40.9969ZM83.2223 39.495H77.8873V45.495H83.2223V39.495ZM80.8873 42.495V24.015H74.8873V42.495H80.8873ZM77.8873 27.015H83.2223V21.015H77.8873V27.015ZM83.2223 27.015C84.2052 27.015 85.6933 26.8316 86.8286 25.6963L82.5859 21.4537C82.8691 21.1706 83.1473 21.0631 83.2637 21.0286C83.3703 20.997 83.3757 21.015 83.2223 21.015V27.015ZM86.8286 25.6963C87.9464 24.5785 88.2023 23.1391 88.2023 22.035H82.2023C82.2023 22.1577 82.1864 22.1366 82.2224 22.0245C82.2631 21.8981 82.365 21.6746 82.5859 21.4537L86.8286 25.6963ZM88.2023 22.035V15.38H82.2023V22.035H88.2023ZM88.2023 15.38C88.2023 14.3147 87.9624 12.7746 86.7004 11.6528L82.7142 16.1372C82.4205 15.8761 82.2857 15.5948 82.2325 15.4349C82.1853 15.2934 82.2023 15.253 82.2023 15.38H88.2023ZM86.9495 11.9019C85.8277 10.6399 84.2876 10.4 83.2223 10.4V16.4C83.3493 16.4 83.3088 16.417 83.1673 16.3698C83.0075 16.3165 82.7261 16.1818 82.465 15.8881L86.9495 11.9019ZM83.2223 10.4H59.7923V16.4H83.2223V10.4ZM59.7923 10.4C58.6882 10.4 57.2487 10.6559 56.1309 11.7737L60.3736 16.0163C60.1527 16.2372 59.9292 16.3392 59.8028 16.3798C59.6907 16.4159 59.6696 16.4 59.7923 16.4V10.4ZM56.1309 11.7737C54.9957 12.909 54.8123 14.3971 54.8123 15.38H60.8123C60.8123 15.2266 60.8302 15.232 60.7987 15.3385C60.7642 15.455 60.6567 15.7332 60.3736 16.0163L56.1309 11.7737ZM54.8123 15.38V22.035H60.8123V15.38H54.8123ZM54.8123 22.035C54.8123 23.0624 55.0142 24.4477 56.01 25.5681L60.4945 21.5819C60.703 21.8165 60.782 22.0313 60.8068 22.1183C60.8293 22.1969 60.8123 22.1844 60.8123 22.035H54.8123ZM56.2592 25.8172C57.3795 26.8131 58.7649 27.015 59.7923 27.015V21.015C59.6429 21.015 59.6304 20.998 59.7089 21.0204C59.796 21.0453 60.0108 21.1243 60.2454 21.3328L56.2592 25.8172ZM59.7923 27.015H65.2373V21.015H59.7923V27.015ZM62.2373 24.015V42.495H68.2373V24.015H62.2373ZM65.2373 39.495H59.7923V45.495H65.2373V39.495ZM59.7923 39.495C58.6882 39.495 57.2487 39.7509 56.1309 40.8687L60.3736 45.1113C60.1527 45.3322 59.9292 45.4342 59.8028 45.4748C59.6907 45.5109 59.6696 45.495 59.7923 45.495V39.495ZM56.1309 40.8687C54.9957 42.004 54.8123 43.4921 54.8123 44.475H60.8123C60.8123 44.3216 60.8302 44.327 60.7987 44.4335C60.7642 44.55 60.6567 44.8282 60.3736 45.1113L56.1309 40.8687ZM54.8123 44.475V51.02H60.8123V44.475H54.8123ZM54.8123 51.02C54.8123 52.0474 55.0142 53.4327 56.01 54.5531L60.4945 50.5669C60.703 50.8015 60.782 51.0163 60.8068 51.1033C60.8293 51.1819 60.8123 51.1694 60.8123 51.02H54.8123ZM56.2592 54.8022C57.3795 55.7981 58.7649 56 59.7923 56V50C59.6429 50 59.6304 49.983 59.7089 50.0054C59.796 50.0303 60.0108 50.1093 60.2454 50.3178L56.2592 54.8022ZM80.2523 45.05H62.7623V51.05H80.2523V45.05ZM65.7623 48.05V47.5H59.7623V48.05H65.7623ZM62.7623 50.5H71.2873V44.5H62.7623V50.5ZM74.2873 47.5V18.9H68.2873V47.5H74.2873ZM71.2873 15.9H62.7623V21.9H71.2873V15.9ZM65.7623 18.9V18.35H59.7623V18.9H65.7623ZM62.7623 21.35H80.2523V15.35H62.7623V21.35ZM77.2523 18.35V18.9H83.2523V18.35H77.2523ZM80.2523 15.9H71.8373V21.9H80.2523V15.9ZM68.8373 18.9V47.5H74.8373V18.9H68.8373ZM71.8373 50.5H80.2523V44.5H71.8373V50.5ZM77.2523 47.5V48.05H83.2523V47.5H77.2523ZM118.262 31.385L120.383 33.5063V33.5063L118.262 31.385ZM119.637 29.515L117.128 27.8696L117.126 27.8733L119.637 29.515ZM126.347 19.285L128.855 20.9304L128.888 20.8801L128.919 20.8285L126.347 19.285ZM127.062 18.57L128.243 21.3274L128.324 21.2927L128.403 21.2533L127.062 18.57ZM129.977 18.79L127.577 20.59L127.704 20.7606L127.855 20.9113L129.977 18.79ZM130.362 48.05V51.05H133.362V48.05H130.362ZM129.812 48.05H126.812V51.05H129.812V48.05ZM129.592 19.285L126.834 20.4667L126.943 20.7199L127.095 20.9491L129.592 19.285ZM126.787 19.67L129.287 21.3278L129.324 21.2715L129.359 21.2135L126.787 19.67ZM120.077 29.79L122.573 31.4541L122.577 31.4478L120.077 29.79ZM118.537 31.825L116.415 29.7037L116.359 29.7595L116.307 29.8181L118.537 31.825ZM115.072 31.825L112.842 33.8319L112.894 33.8905L112.95 33.9463L115.072 31.825ZM113.587 29.79L111.086 31.4478L111.09 31.4541L113.587 29.79ZM106.877 19.67L104.304 21.2135L104.339 21.2715L104.376 21.3278L106.877 19.67ZM106.217 19.01L105.102 21.7954L105.184 21.8282L105.268 21.8561L106.217 19.01ZM104.017 19.285L106.7 20.6266L106.739 20.5478L106.774 20.4668L104.017 19.285ZM103.852 48.05V51.05H106.852V48.05H103.852ZM103.302 48.05H100.302V51.05H103.302V48.05ZM103.632 18.79L101.374 16.8145L101.364 16.826L101.354 16.8376L103.632 18.79ZM106.547 18.57L105.205 21.2533L105.346 21.3237L105.493 21.379L106.547 18.57ZM107.317 19.285L104.744 20.8285L104.775 20.8801L104.808 20.9304L107.317 19.285ZM114.027 29.515L116.537 27.8732L116.535 27.8696L114.027 29.515ZM115.402 31.385L117.523 29.2637V29.2637L115.402 31.385ZM109.132 52.56L111.253 54.6813V54.6813L109.132 52.56ZM109.627 31.66L112.265 30.2319L106.627 31.66H109.627ZM112.872 37.655L115.523 36.2513L115.516 36.2391L115.51 36.2269L112.872 37.655ZM114.027 39.03L112.362 41.5261L112.48 41.6045L112.604 41.6714L114.027 39.03ZM119.692 39.03L121.203 41.6213L121.234 41.6035L121.264 41.585L119.692 39.03ZM120.902 37.655L118.263 36.2269L118.257 36.2391L118.25 36.2513L120.902 37.655ZM124.147 31.66H127.147L121.508 30.2319L124.147 31.66ZM124.587 52.56L122.344 54.5531L122.462 54.685L122.593 54.8022L124.587 52.56ZM136.082 52.56L138.203 54.6813V54.6813L136.082 52.56ZM136.082 13.895L133.839 15.8881L133.957 16.02L134.088 16.1372L136.082 13.895ZM124.202 13.785L122.591 11.254L122.535 11.2894L122.481 11.3273L124.202 13.785ZM123.157 15.05L120.542 13.5792L120.533 13.5957L120.523 13.6123L123.157 15.05ZM118.262 24.015L120.884 25.4719L120.889 25.4623L120.895 25.4527L118.262 24.015ZM117.767 24.73L115.645 22.6087L115.494 22.7594L115.367 22.93L117.767 24.73ZM116.227 24.73L113.827 26.53L113.954 26.7006L114.105 26.8513L116.227 24.73ZM115.787 24.015L113.16 25.4651L113.164 25.4719L115.787 24.015ZM110.837 15.05L113.463 13.5999L113.457 13.5895L113.451 13.5792L110.837 15.05ZM109.737 13.785L108.016 16.2427L108.07 16.2805L108.126 16.316L109.737 13.785ZM97.9116 13.895L95.7902 11.7737L95.7902 11.7737L97.9116 13.895ZM97.9116 52.56L95.6693 54.5531L95.7866 54.685L95.9185 54.8022L97.9116 52.56ZM109.407 53.055L111.324 55.3626L111.341 55.3478L111.359 55.3328L109.407 53.055ZM102.257 58.995L100.34 56.6874L100.233 56.7758L100.135 56.8737L102.257 58.995ZM101.542 59.38L100.593 56.534L100.54 56.5515L100.488 56.571L101.542 59.38ZM90.4316 58.94L88.3102 61.0613L90.4316 58.94ZM89.9916 20.165L87.2501 18.9466L87.1913 19.0789L87.1455 19.2163L89.9916 20.165ZM90.5966 19.34L88.6603 17.0485L88.6522 17.0553L88.6442 17.0622L90.5966 19.34ZM97.6916 13.345L95.8175 11.0024L95.7861 11.0275L95.7553 11.0535L97.6916 13.345ZM98.4066 13.015L99.1342 15.9254L99.2459 15.8975L99.3552 15.8611L98.4066 13.015ZM110.012 13.29L108.347 15.7862L108.393 15.8164L108.439 15.845L110.012 13.29ZM111.332 14.775L113.967 13.3414L113.948 13.3064L113.928 13.2719L111.332 14.775ZM115.072 21.65L112.436 23.0836L115.028 27.8472L117.686 23.1208L115.072 21.65ZM115.567 20.77L112.962 19.2816L112.957 19.2904L112.952 19.2992L115.567 20.77ZM116.007 20.055L113.565 18.3113L113.537 18.3506L113.51 18.3909L116.007 20.055ZM116.557 19.45L118.431 21.7926L118.457 21.7717L118.482 21.7503L116.557 19.45ZM123.652 13.51L121.852 11.11L121.787 11.1582L121.726 11.2097L123.652 13.51ZM124.532 13.015L123.583 10.1689L123.53 10.1865L123.478 10.206L124.532 13.015ZM136.522 13.455L138.643 11.3337L138.643 11.3337L136.522 13.455ZM136.907 52.23L134.165 51.0116L134.106 51.1439L134.061 51.2813L136.907 52.23ZM136.357 53.055L138.274 55.3626L138.291 55.3478L138.309 55.3328L136.357 53.055ZM129.207 58.995L127.29 56.6874L127.183 56.7758L127.085 56.8737L129.207 58.995ZM128.492 59.38L127.543 56.534L127.49 56.5515L127.438 56.571L128.492 59.38ZM117.052 58.94L114.832 60.958L114.88 61.0108L114.93 61.0613L117.052 58.94ZM116.502 42.495H119.502V36.1038L114.585 40.1871L116.502 42.495ZM113.257 45.19L111.34 42.8821L111.31 42.9068L111.281 42.9323L113.257 45.19ZM112.212 45.795L113.074 48.6685L113.156 48.6438L113.237 48.6144L112.212 45.795ZM110.177 45.96V42.96H107.177V45.96H110.177ZM109.957 52.23L107.215 51.0116L107.156 51.1439L107.111 51.2813L109.957 52.23ZM116.832 34.825C117.834 34.825 119.272 34.6175 120.383 33.5063L116.14 29.2637C116.403 29.0009 116.666 28.8893 116.802 28.8477C116.925 28.8099 116.953 28.825 116.832 28.825V34.825ZM120.383 33.5063C120.927 32.9618 121.542 32.0829 122.147 31.1567L117.126 27.8733C116.831 28.3232 116.594 28.6682 116.408 28.9203C116.206 29.1951 116.125 29.2792 116.14 29.2637L120.383 33.5063ZM122.145 31.1604L128.855 20.9304L123.838 17.6396L117.128 27.8696L122.145 31.1604ZM128.919 20.8285C128.935 20.8021 128.905 20.8592 128.812 20.9526C128.715 21.0488 128.53 21.2045 128.243 21.3274L125.88 15.8126C124.809 16.2714 124.157 17.1038 123.774 17.7415L128.919 20.8285ZM128.403 21.2533C128.33 21.29 128.167 21.35 127.942 21.35V15.35C127.13 15.35 126.38 15.5566 125.72 15.8867L128.403 21.2533ZM127.942 21.35H128.877V15.35H127.942V21.35ZM128.877 21.35C128.86 21.35 128.682 21.3493 128.422 21.2454C128.136 21.1308 127.822 20.9174 127.577 20.59L132.377 16.99C131.386 15.6689 129.932 15.35 128.877 15.35V21.35ZM127.855 20.9113C127.568 20.6244 127.444 20.3325 127.395 20.1722C127.35 20.024 127.362 19.9661 127.362 20.055H133.362C133.362 19.1425 133.18 17.7503 132.098 16.6687L127.855 20.9113ZM127.362 20.055V48.05H133.362V20.055H127.362ZM130.362 45.05H129.812V51.05H130.362V45.05ZM132.812 48.05V20.055H126.812V48.05H132.812ZM132.812 20.055C132.812 19.2367 132.598 18.3869 132.088 17.6209L127.095 20.9491C126.878 20.6231 126.812 20.2866 126.812 20.055H132.812ZM132.349 18.1032C132.036 17.3727 131.489 16.7514 130.753 16.3548C130.069 15.9867 129.388 15.9 128.877 15.9V21.9C128.732 21.9 128.353 21.8775 127.908 21.6377C127.41 21.3694 127.037 20.9406 126.834 20.4667L132.349 18.1032ZM128.877 15.9H128.052V21.9H128.877V15.9ZM128.052 15.9C127.522 15.9 126.904 15.974 126.277 16.2246L128.506 21.7954C128.246 21.8993 128.068 21.9 128.052 21.9V15.9ZM126.277 16.2246C125.609 16.4919 125.155 16.9155 124.891 17.2028C124.61 17.5101 124.387 17.8377 124.214 18.1265L129.359 21.2135C129.406 21.1356 129.394 21.1699 129.314 21.2572C129.271 21.3043 129.19 21.3862 129.069 21.4788C128.948 21.5709 128.761 21.6935 128.506 21.7954L126.277 16.2246ZM124.286 18.0122L117.576 28.1322L122.577 31.4478L129.287 21.3278L124.286 18.0122ZM117.58 28.1259C116.926 29.1071 116.553 29.5655 116.415 29.7037L120.658 33.9463C121.253 33.3512 121.907 32.4529 122.573 31.4541L117.58 28.1259ZM116.307 29.8181C116.563 29.5331 116.828 29.419 116.942 29.3824C117.039 29.3511 117.024 29.375 116.832 29.375V35.375C117.965 35.375 119.592 35.1364 120.766 33.8319L116.307 29.8181ZM116.832 29.375C116.643 29.375 116.611 29.352 116.681 29.3741C116.765 29.4003 116.975 29.486 117.193 29.7037L112.95 33.9463C114.124 35.1204 115.66 35.375 116.832 35.375V29.375ZM117.301 29.8181C117.132 29.6301 116.743 29.1162 116.083 28.1259L111.09 31.4541C111.75 32.4438 112.351 33.2866 112.842 33.8319L117.301 29.8181ZM116.087 28.1322L109.377 18.0122L104.376 21.3278L111.086 31.4478L116.087 28.1322ZM109.449 18.1265C109.135 17.6039 108.441 16.5891 107.165 16.1639L105.268 21.8561C104.812 21.704 104.537 21.4633 104.425 21.3513C104.311 21.2369 104.277 21.1681 104.304 21.2135L109.449 18.1265ZM107.331 16.2246C106.704 15.974 106.086 15.9 105.557 15.9V21.9C105.54 21.9 105.362 21.8993 105.102 21.7954L107.331 16.2246ZM105.557 15.9H104.732V21.9H105.557V15.9ZM104.732 15.9C104.22 15.9 103.539 15.9867 102.856 16.3548C102.119 16.7514 101.572 17.3727 101.259 18.1032L106.774 20.4668C106.571 20.9406 106.198 21.3694 105.7 21.6377C105.255 21.8775 104.876 21.9 104.732 21.9V15.9ZM101.333 17.9434C100.979 18.6528 100.852 19.3849 100.852 20.055H106.852C106.852 20.1385 106.835 20.3572 106.7 20.6266L101.333 17.9434ZM100.852 20.055V48.05H106.852V20.055H100.852ZM103.852 45.05H103.302V51.05H103.852V45.05ZM106.302 48.05V20.055H100.302V48.05H106.302ZM106.302 20.055C106.302 19.9352 106.314 19.9512 106.287 20.056C106.259 20.1628 106.169 20.4399 105.909 20.7424L101.354 16.8376C100.43 17.9155 100.302 19.2309 100.302 20.055H106.302ZM105.889 20.7655C105.701 20.9802 105.464 21.1453 105.213 21.2454C104.977 21.3399 104.798 21.35 104.732 21.35V15.35C103.6 15.35 102.325 15.7274 101.374 16.8145L105.889 20.7655ZM104.732 21.35H105.667V15.35H104.732V21.35ZM105.667 21.35C105.442 21.35 105.278 21.29 105.205 21.2533L107.888 15.8867C107.228 15.5566 106.478 15.35 105.667 15.35V21.35ZM105.493 21.379C104.955 21.1771 104.747 20.8328 104.744 20.8285L109.889 17.7415C109.446 17.0039 108.725 16.1829 107.6 15.761L105.493 21.379ZM104.808 20.9304L111.518 31.1604L116.535 27.8696L109.825 17.6396L104.808 20.9304ZM111.516 31.1567C112.121 32.0829 112.736 32.9618 113.28 33.5063L117.523 29.2637C117.538 29.2792 117.457 29.1951 117.255 28.9203C117.069 28.6682 116.832 28.3232 116.537 27.8732L111.516 31.1567ZM113.28 33.5063C114.391 34.6175 115.829 34.825 116.832 34.825V28.825C116.71 28.825 116.739 28.8099 116.861 28.8477C116.997 28.8893 117.26 29.0009 117.523 29.2637L113.28 33.5063ZM107.647 56C108.629 56 110.118 55.8166 111.253 54.6813L107.01 50.4387C107.293 50.1555 107.572 50.0481 107.688 50.0136C107.795 49.982 107.8 50 107.647 50V56ZM111.253 54.6813C112.371 53.5635 112.627 52.1241 112.627 51.02H106.627C106.627 51.1427 106.611 51.1216 106.647 51.0095C106.687 50.8831 106.789 50.6596 107.01 50.4387L111.253 54.6813ZM112.627 51.02V31.66H106.627V51.02H112.627ZM106.988 33.0881L110.233 39.0831L115.51 36.2269L112.265 30.2319L106.988 33.0881ZM110.22 39.0587C110.709 39.9812 111.392 40.8794 112.362 41.5261L115.691 36.5339C115.781 36.5939 115.695 36.5755 115.523 36.2513L110.22 39.0587ZM112.604 41.6714C113.626 42.2214 114.732 42.415 115.787 42.415V36.415C115.448 36.415 115.381 36.3519 115.449 36.3886L112.604 41.6714ZM115.787 42.415H117.987V36.415H115.787V42.415ZM117.987 42.415C119.027 42.415 120.166 42.2264 121.203 41.6213L118.18 36.4387C118.26 36.3921 118.302 36.3863 118.275 36.3924C118.244 36.3992 118.154 36.415 117.987 36.415V42.415ZM121.264 41.585C122.301 40.9468 123.037 40.0337 123.553 39.0587L118.25 36.2513C118.106 36.523 118.036 36.5265 118.119 36.475L121.264 41.585ZM123.54 39.0831L126.785 33.0881L121.508 30.2319L118.263 36.2269L123.54 39.0831ZM121.147 31.66V51.02H127.147V31.66H121.147ZM121.147 51.02C121.147 52.0474 121.348 53.4327 122.344 54.5531L126.829 50.5669C127.037 50.8015 127.116 51.0163 127.141 51.1033C127.164 51.1819 127.147 51.1694 127.147 51.02H121.147ZM122.593 54.8022C123.714 55.7981 125.099 56 126.127 56V50C125.977 50 125.965 49.983 126.043 50.0054C126.13 50.0303 126.345 50.1093 126.58 50.3178L122.593 54.8022ZM126.127 56H134.597V50H126.127V56ZM134.597 56C135.579 56 137.068 55.8166 138.203 54.6813L133.96 50.4387C134.243 50.1555 134.522 50.0481 134.638 50.0136C134.745 49.982 134.75 50 134.597 50V56ZM138.203 54.6813C139.321 53.5635 139.577 52.1241 139.577 51.02H133.577C133.577 51.1427 133.561 51.1216 133.597 51.0095C133.637 50.8831 133.739 50.6596 133.96 50.4387L138.203 54.6813ZM139.577 51.02V15.38H133.577V51.02H139.577ZM139.577 15.38C139.577 14.3147 139.337 12.7746 138.075 11.6528L134.088 16.1372C133.795 15.8761 133.66 15.5948 133.607 15.4349C133.56 15.2934 133.577 15.253 133.577 15.38H139.577ZM138.324 11.9019C137.202 10.6399 135.662 10.4 134.597 10.4V16.4C134.724 16.4 134.683 16.417 134.542 16.3698C134.382 16.3165 134.1 16.1818 133.839 15.8881L138.324 11.9019ZM134.597 10.4H125.687V16.4H134.597V10.4ZM125.687 10.4C124.659 10.4 123.575 10.628 122.591 11.254L125.812 16.316C125.731 16.3674 125.663 16.3912 125.628 16.4002C125.597 16.4084 125.611 16.4 125.687 16.4V10.4ZM122.481 11.3273C121.608 11.9386 120.991 12.7808 120.542 13.5792L125.771 16.5208C125.868 16.3488 125.94 16.2508 125.978 16.2044C126.017 16.1575 126.002 16.1864 125.922 16.2427L122.481 11.3273ZM120.523 13.6123L115.628 22.5773L120.895 25.4527L125.79 16.4877L120.523 13.6123ZM115.639 22.5581C115.611 22.608 115.588 22.6474 115.57 22.6776C115.551 22.708 115.539 22.726 115.534 22.7336C115.528 22.7416 115.533 22.7342 115.548 22.7152C115.556 22.7054 115.568 22.6913 115.584 22.6739C115.599 22.6564 115.62 22.6343 115.645 22.6087L119.888 26.8513C120.331 26.4082 120.657 25.881 120.884 25.4719L115.639 22.5581ZM115.367 22.93C115.614 22.6004 115.949 22.3281 116.342 22.1536C116.717 21.9868 117.051 21.95 117.272 21.95V27.95C118.224 27.95 119.374 27.5872 120.167 26.53L115.367 22.93ZM117.272 21.95H116.777V27.95H117.272V21.95ZM116.777 21.95C117.005 21.95 117.287 21.9892 117.588 22.1096C117.893 22.2313 118.149 22.4095 118.348 22.6087L114.105 26.8513C114.851 27.5974 115.814 27.95 116.777 27.95V21.95ZM118.627 22.93C118.647 22.9576 118.636 22.9459 118.589 22.869C118.545 22.7982 118.486 22.6966 118.409 22.5581L113.164 25.4719C113.36 25.824 113.588 26.2115 113.827 26.53L118.627 22.93ZM118.413 22.5649L113.463 13.5999L108.21 16.5001L113.16 25.4651L118.413 22.5649ZM113.451 13.5792C112.972 12.7274 112.303 11.8621 111.347 11.254L108.126 16.316C108.047 16.2657 108.025 16.2336 108.05 16.2623C108.076 16.2921 108.137 16.3701 108.222 16.5208L113.451 13.5792ZM111.457 11.3273C110.45 10.6226 109.319 10.4 108.307 10.4V16.4C108.467 16.4 108.29 16.434 108.016 16.2427L111.457 11.3273ZM108.307 10.4H99.4516V16.4H108.307V10.4ZM99.4516 10.4C98.3475 10.4 96.908 10.6559 95.7902 11.7737L100.033 16.0163C99.812 16.2372 99.5885 16.3392 99.4621 16.3798C99.35 16.4159 99.3288 16.4 99.4516 16.4V10.4ZM95.7902 11.7737C94.655 12.909 94.4716 14.3971 94.4716 15.38H100.472C100.472 15.2266 100.49 15.232 100.458 15.3385C100.423 15.455 100.316 15.7332 100.033 16.0163L95.7902 11.7737ZM94.4716 15.38V51.02H100.472V15.38H94.4716ZM94.4716 51.02C94.4716 52.0474 94.6734 53.4327 95.6693 54.5531L100.154 50.5669C100.362 50.8015 100.441 51.0163 100.466 51.1033C100.489 51.1819 100.472 51.1694 100.472 51.02H94.4716ZM95.9185 54.8022C97.0388 55.7981 98.4242 56 99.4516 56V50C99.3022 50 99.2897 49.983 99.3682 50.0054C99.4553 50.0303 99.6701 50.1093 99.9047 50.3178L95.9185 54.8022ZM99.4516 56H107.647V50H99.4516V56ZM107.49 50.7474L100.34 56.6874L104.174 61.3026L111.324 55.3626L107.49 50.7474ZM100.135 56.8737C100.32 56.6887 100.481 56.5944 100.546 56.5598C100.614 56.5231 100.638 56.5189 100.593 56.534L102.49 62.2261C103 62.056 103.751 61.7436 104.378 61.1163L100.135 56.8737ZM100.488 56.571C100.584 56.5352 100.619 56.545 100.552 56.545V62.545C101.218 62.545 101.913 62.4448 102.595 62.189L100.488 56.571ZM100.552 56.545H92.3566V62.545H100.552V56.545ZM92.3566 56.545C92.1332 56.545 92.0707 56.5179 92.1148 56.5318C92.1725 56.5499 92.3566 56.6224 92.5529 56.8187L88.3102 61.0613C89.5171 62.2682 91.1029 62.545 92.3566 62.545V56.545ZM92.5529 56.8187C92.7492 57.015 92.8217 57.1991 92.8398 57.2568C92.8536 57.3008 92.8266 57.2384 92.8266 57.015H86.8266C86.8266 58.2687 87.1034 59.8545 88.3102 61.0613L92.5529 56.8187ZM92.8266 57.015V21.375H86.8266V57.015H92.8266ZM92.8266 21.375C92.8266 21.25 92.8339 21.1673 92.8403 21.1203C92.8468 21.073 92.8505 21.0751 92.8376 21.1137L87.1455 19.2163C86.9036 19.942 86.8266 20.6866 86.8266 21.375H92.8266ZM92.733 21.3834C92.7242 21.4031 92.7054 21.4398 92.672 21.4853C92.6382 21.5314 92.5965 21.577 92.5489 21.6178L88.6442 17.0622C88.0263 17.5919 87.5652 18.2376 87.2501 18.9466L92.733 21.3834ZM92.5328 21.6315L99.6278 15.6365L95.7553 11.0535L88.6603 17.0485L92.5328 21.6315ZM99.5657 15.6876C99.3299 15.8762 99.1435 15.9231 99.1342 15.9254L97.6789 10.1046C97.083 10.2536 96.4199 10.5204 95.8175 11.0024L99.5657 15.6876ZM99.3552 15.8611C99.3631 15.8584 99.3898 15.85 99.4516 15.85V9.85C98.78 9.85 98.11 9.95158 97.4579 10.1689L99.3552 15.8611ZM99.4516 15.85H108.307V9.85H99.4516V15.85ZM108.307 15.85C108.448 15.85 108.507 15.8652 108.506 15.8648C108.504 15.8644 108.487 15.8598 108.458 15.8471C108.428 15.8343 108.39 15.8147 108.347 15.7862L111.676 10.7938C110.609 10.0825 109.41 9.85 108.307 9.85V15.85ZM108.439 15.845C108.387 15.813 108.397 15.8069 108.457 15.8743C108.518 15.9427 108.614 16.0687 108.735 16.2781L113.928 13.2719C113.378 12.3215 112.629 11.3779 111.584 10.735L108.439 15.845ZM108.696 16.2086L112.436 23.0836L117.707 20.2164L113.967 13.3414L108.696 16.2086ZM117.686 23.1208L118.181 22.2408L112.952 19.2992L112.457 20.1792L117.686 23.1208ZM118.171 22.2584C118.288 22.0547 118.398 21.8756 118.503 21.7191L113.51 18.3909C113.321 18.6744 113.139 18.972 112.962 19.2816L118.171 22.2584ZM118.448 21.7987C118.464 21.7756 118.477 21.7586 118.487 21.7469C118.496 21.7352 118.501 21.7296 118.501 21.7293C118.502 21.7289 118.496 21.7347 118.485 21.7453C118.474 21.7559 118.456 21.7723 118.431 21.7926L114.682 17.1074C114.224 17.4742 113.858 17.9015 113.565 18.3113L118.448 21.7987ZM118.482 21.7503L125.577 15.8103L121.726 11.2097L114.631 17.1497L118.482 21.7503ZM125.452 15.91C125.555 15.8328 125.6 15.8185 125.585 15.824L123.478 10.206C122.877 10.4315 122.335 10.7472 121.852 11.11L125.452 15.91ZM125.48 15.8611C125.436 15.8759 125.488 15.85 125.687 15.85V9.85C125.006 9.85 124.287 9.93408 123.583 10.1689L125.48 15.8611ZM125.687 15.85H134.597V9.85H125.687V15.85ZM134.597 15.85C134.82 15.85 134.882 15.8771 134.838 15.8632C134.781 15.8451 134.597 15.7726 134.4 15.5763L138.643 11.3337C137.436 10.1268 135.85 9.85 134.597 9.85V15.85ZM134.4 15.5763C134.204 15.38 134.131 15.1959 134.113 15.1382C134.099 15.0942 134.127 15.1566 134.127 15.38H140.127C140.127 14.1263 139.85 12.5405 138.643 11.3337L134.4 15.5763ZM134.127 15.38V51.02H140.127V15.38H134.127ZM134.127 51.02C134.127 51.0625 134.125 51.0937 134.123 51.1146C134.121 51.1355 134.12 51.1446 134.12 51.1433C134.12 51.1412 134.13 51.0917 134.165 51.0116L139.648 53.4484C140.01 52.6331 140.127 51.7886 140.127 51.02H134.127ZM134.061 51.2813C134.085 51.2066 134.127 51.1154 134.19 51.0196C134.255 50.9235 134.329 50.8418 134.404 50.7772L138.309 55.3328C138.991 54.7483 139.476 54.0088 139.753 53.1787L134.061 51.2813ZM134.44 50.7474L127.29 56.6874L131.124 61.3026L138.274 55.3626L134.44 50.7474ZM127.085 56.8737C127.27 56.6887 127.431 56.5944 127.496 56.5598C127.564 56.5231 127.588 56.5189 127.543 56.534L129.44 62.2261C129.95 62.056 130.701 61.7436 131.328 61.1163L127.085 56.8737ZM127.438 56.571C127.534 56.5352 127.569 56.545 127.502 56.545V62.545C128.168 62.545 128.863 62.4448 129.545 62.189L127.438 56.571ZM127.502 56.545H119.032V62.545H127.502V56.545ZM119.032 56.545C118.911 56.545 118.826 56.5383 118.773 56.5314C118.719 56.5246 118.707 56.5188 118.726 56.5247C118.768 56.5375 118.961 56.6072 119.173 56.8187L114.93 61.0613C116.156 62.287 117.783 62.545 119.032 62.545V56.545ZM119.271 56.922C119.46 57.1299 119.516 57.307 119.524 57.3321C119.527 57.3445 119.521 57.3269 119.514 57.2715C119.508 57.2163 119.502 57.1322 119.502 57.015H113.502C113.502 58.2078 113.733 59.749 114.832 60.958L119.271 56.922ZM119.502 57.015V42.495H113.502V57.015H119.502ZM114.585 40.1871L111.34 42.8821L115.173 47.4979L118.418 44.8029L114.585 40.1871ZM111.281 42.9323C111.285 42.9286 111.284 42.9308 111.272 42.9375C111.26 42.9445 111.233 42.9585 111.186 42.9756L113.237 48.6144C113.954 48.3537 114.633 47.9723 115.232 47.4477L111.281 42.9323ZM111.35 42.9215C111.35 42.9214 111.341 42.9241 111.322 42.928C111.302 42.932 111.273 42.937 111.234 42.9419C111.155 42.9518 111.043 42.96 110.892 42.96V48.96C111.604 48.96 112.351 48.8854 113.074 48.6685L111.35 42.9215ZM110.892 42.96H110.177V48.96H110.892V42.96ZM107.177 45.96V51.02H113.177V45.96H107.177ZM107.177 51.02C107.177 51.0625 107.175 51.0937 107.173 51.1146C107.171 51.1355 107.17 51.1446 107.17 51.1433C107.17 51.1412 107.18 51.0917 107.215 51.0116L112.698 53.4484C113.06 52.6331 113.177 51.7886 113.177 51.02H107.177ZM107.111 51.2813C107.135 51.2066 107.177 51.1154 107.24 51.0196C107.305 50.9235 107.379 50.8418 107.454 50.7772L111.359 55.3328C112.041 54.7483 112.526 54.0088 112.803 53.1787L107.111 51.2813ZM142.639 58.94L140.517 61.0613L142.639 58.94ZM142.199 20.165L139.457 18.9466L139.398 19.0789L139.353 19.2163L142.199 20.165ZM142.804 19.34L140.867 17.0485L140.859 17.0553L140.851 17.0622L142.804 19.34ZM149.899 13.345L148.025 11.0024L147.993 11.0275L147.962 11.0535L149.899 13.345ZM150.614 13.015L151.341 15.9254L151.453 15.8975L151.562 15.8611L150.614 13.015ZM179.104 13.455L181.225 11.3337V11.3337L179.104 13.455ZM179.489 23.025L176.747 21.8066L176.688 21.9389L176.643 22.0763L179.489 23.025ZM178.939 23.85L180.849 26.1635L180.87 26.1458L180.891 26.1278L178.939 23.85ZM174.209 27.755L172.299 25.4415L168.744 28.3766L172.867 30.4383L174.209 27.755ZM174.979 28.58L172.193 29.6942L172.24 29.81L172.295 29.9216L174.979 28.58ZM175.034 37.105L172.292 35.8866L172.233 36.0189L172.188 36.1563L175.034 37.105ZM174.484 37.93L176.417 40.2241L176.426 40.216L176.436 40.2078L174.484 37.93ZM169.589 42.055L167.655 39.7609L161.373 45.055H169.589V42.055ZM179.104 42.66L181.225 40.5387V40.5387L179.104 42.66ZM179.489 52.23L176.747 51.0116L176.688 51.1439L176.643 51.2813L179.489 52.23ZM178.939 53.055L180.856 55.3626L180.873 55.3478L180.891 55.3328L178.939 53.055ZM171.789 58.995L169.872 56.6874L169.765 56.7758L169.667 56.8737L171.789 58.995ZM171.074 59.38L170.125 56.534L170.072 56.5515L170.02 56.571L171.074 59.38ZM178.664 52.56L180.785 54.6813V54.6813L178.664 52.56ZM178.664 43.1L176.421 45.0931L176.539 45.225L176.671 45.3422L178.664 43.1ZM161.999 42.605H158.999V45.605H161.999V42.605ZM161.999 37.875V34.875H158.999V37.875H161.999ZM174.209 37.435L172.087 35.3137L174.209 37.435ZM174.209 28.525L171.966 30.5181L172.084 30.65L172.215 30.7672L174.209 28.525ZM161.999 28.03H158.999V31.03H161.999V28.03ZM161.999 23.795V20.795H158.999V23.795H161.999ZM178.664 13.895L176.421 15.8881L176.539 16.02L176.671 16.1372L178.664 13.895ZM150.119 13.895L147.997 11.7737V11.7737L150.119 13.895ZM150.119 52.56L147.876 54.5531L147.994 54.685L148.126 54.8022L150.119 52.56ZM174.209 47.5H177.209V44.5H174.209V47.5ZM174.209 48.05V51.05H177.209V48.05H174.209ZM155.674 48.05H152.674V51.05H155.674V48.05ZM155.674 18.35V15.35H152.674V18.35H155.674ZM174.209 18.35H177.209V15.35H174.209V18.35ZM174.209 18.9V21.9H177.209V18.9H174.209ZM156.224 18.9V15.9H153.224V18.9H156.224ZM156.224 32.705H153.224V35.705H156.224V32.705ZM169.754 32.705H172.754V29.705H169.754V32.705ZM169.754 33.255V36.255H172.754V33.255H169.754ZM156.224 33.255V30.255H153.224V33.255H156.224ZM156.224 47.5H153.224V50.5H156.224V47.5ZM170.084 56.545H144.564V62.545H170.084V56.545ZM144.564 56.545C144.34 56.545 144.278 56.5179 144.322 56.5318C144.38 56.5499 144.564 56.6224 144.76 56.8187L140.517 61.0613C141.724 62.2682 143.31 62.545 144.564 62.545V56.545ZM144.76 56.8187C144.956 57.015 145.029 57.1991 145.047 57.2568C145.061 57.3008 145.034 57.2384 145.034 57.015H139.034C139.034 58.2687 139.31 59.8545 140.517 61.0613L144.76 56.8187ZM145.034 57.015V21.375H139.034V57.015H145.034ZM145.034 21.375C145.034 21.25 145.041 21.1673 145.047 21.1203C145.054 21.073 145.058 21.0751 145.045 21.1137L139.353 19.2163C139.111 19.942 139.034 20.6866 139.034 21.375H145.034ZM144.94 21.3834C144.931 21.4031 144.912 21.4398 144.879 21.4853C144.845 21.5314 144.804 21.577 144.756 21.6178L140.851 17.0622C140.233 17.5919 139.772 18.2376 139.457 18.9466L144.94 21.3834ZM144.74 21.6315L151.835 15.6365L147.962 11.0535L140.867 17.0485L144.74 21.6315ZM151.773 15.6876C151.537 15.8762 151.351 15.9231 151.341 15.9254L149.886 10.1046C149.29 10.2536 148.627 10.5204 148.025 11.0024L151.773 15.6876ZM151.562 15.8611C151.57 15.8584 151.597 15.85 151.659 15.85V9.85C150.987 9.85 150.317 9.95158 149.665 10.1689L151.562 15.8611ZM151.659 15.85H177.179V9.85H151.659V15.85ZM177.179 15.85C177.402 15.85 177.464 15.8771 177.42 15.8632C177.363 15.8451 177.179 15.7726 176.982 15.5763L181.225 11.3337C180.018 10.1268 178.432 9.85 177.179 9.85V15.85ZM176.982 15.5763C176.786 15.38 176.714 15.1959 176.695 15.1382C176.682 15.0942 176.709 15.1566 176.709 15.38H182.709C182.709 14.1263 182.432 12.5405 181.225 11.3337L176.982 15.5763ZM176.709 15.38V21.815H182.709V15.38H176.709ZM176.709 21.815C176.709 21.8575 176.707 21.8887 176.705 21.9096C176.703 21.9305 176.702 21.9396 176.702 21.9383C176.702 21.9362 176.712 21.8867 176.747 21.8066L182.23 24.2434C182.592 23.4281 182.709 22.5835 182.709 21.815H176.709ZM176.643 22.0763C176.667 22.0016 176.709 21.9104 176.772 21.8146C176.837 21.7185 176.911 21.6368 176.986 21.5722L180.891 26.1278C181.573 25.5433 182.058 24.8038 182.335 23.9737L176.643 22.0763ZM177.029 21.5365L172.299 25.4415L176.119 30.0685L180.849 26.1635L177.029 21.5365ZM172.867 30.4383C172.76 30.3846 172.619 30.2918 172.483 30.1457C172.345 29.9982 172.251 29.8383 172.193 29.6942L177.764 27.4658C177.333 26.389 176.547 25.5699 175.55 25.0717L172.867 30.4383ZM172.295 29.9216C172.244 29.8197 172.236 29.7619 172.239 29.779C172.24 29.7866 172.244 29.8089 172.247 29.8483C172.251 29.8876 172.254 29.941 172.254 30.01H178.254C178.254 29.1447 178.124 28.1617 177.662 27.2384L172.295 29.9216ZM172.254 30.01V35.895H178.254V30.01H172.254ZM172.254 35.895C172.254 35.9375 172.252 35.9687 172.25 35.9896C172.248 36.0105 172.247 36.0196 172.247 36.0183C172.247 36.0162 172.257 35.9667 172.292 35.8866L177.775 38.3234C178.137 37.5081 178.254 36.6636 178.254 35.895H172.254ZM172.188 36.1563C172.212 36.0816 172.254 35.9904 172.317 35.8946C172.382 35.7985 172.456 35.7168 172.531 35.6522L176.436 40.2078C177.118 39.6233 177.603 38.8838 177.88 38.0537L172.188 36.1563ZM172.55 35.6359L167.655 39.7609L171.522 44.3491L176.417 40.2241L172.55 35.6359ZM169.589 45.055H177.179V39.055H169.589V45.055ZM177.179 45.055C177.402 45.055 177.464 45.0821 177.42 45.0682C177.363 45.0501 177.179 44.9776 176.982 44.7813L181.225 40.5387C180.018 39.3318 178.432 39.055 177.179 39.055V45.055ZM176.982 44.7813C176.786 44.585 176.714 44.4009 176.695 44.3432C176.682 44.2992 176.709 44.3616 176.709 44.585H182.709C182.709 43.3313 182.432 41.7455 181.225 40.5387L176.982 44.7813ZM176.709 44.585V51.02H182.709V44.585H176.709ZM176.709 51.02C176.709 51.0625 176.707 51.0937 176.705 51.1146C176.703 51.1355 176.702 51.1446 176.702 51.1433C176.702 51.1412 176.712 51.0917 176.747 51.0116L182.23 53.4484C182.592 52.6331 182.709 51.7886 182.709 51.02H176.709ZM176.643 51.2813C176.667 51.2066 176.709 51.1154 176.772 51.0196C176.837 50.9235 176.911 50.8418 176.986 50.7772L180.891 55.3328C181.573 54.7483 182.058 54.0088 182.335 53.1787L176.643 51.2813ZM177.022 50.7474L169.872 56.6874L173.706 61.3026L180.856 55.3626L177.022 50.7474ZM169.667 56.8737C169.852 56.6887 170.013 56.5944 170.078 56.5598C170.146 56.5231 170.17 56.5189 170.125 56.534L172.022 62.2261C172.532 62.056 173.283 61.7436 173.91 61.1163L169.667 56.8737ZM170.02 56.571C170.116 56.5352 170.151 56.545 170.084 56.545V62.545C170.75 62.545 171.445 62.4448 172.127 62.189L170.02 56.571ZM177.179 56C178.161 56 179.65 55.8166 180.785 54.6813L176.542 50.4387C176.825 50.1555 177.104 50.0481 177.22 50.0136C177.327 49.982 177.332 50 177.179 50V56ZM180.785 54.6813C181.903 53.5635 182.159 52.1241 182.159 51.02H176.159C176.159 51.1427 176.143 51.1216 176.179 51.0095C176.219 50.8831 176.321 50.6596 176.542 50.4387L180.785 54.6813ZM182.159 51.02V44.585H176.159V51.02H182.159ZM182.159 44.585C182.159 43.5197 181.919 41.9796 180.657 40.8578L176.671 45.3422C176.377 45.0812 176.242 44.7998 176.189 44.6399C176.142 44.4984 176.159 44.458 176.159 44.585H182.159ZM180.906 41.1069C179.784 39.8449 178.244 39.605 177.179 39.605V45.605C177.306 45.605 177.265 45.622 177.124 45.5748C176.964 45.5215 176.682 45.3868 176.421 45.0931L180.906 41.1069ZM177.179 39.605H161.999V45.605H177.179V39.605ZM164.999 42.605V37.875H158.999V42.605H164.999ZM161.999 40.875H172.724V34.875H161.999V40.875ZM172.724 40.875C173.706 40.875 175.195 40.6916 176.33 39.5563L172.087 35.3137C172.37 35.0305 172.649 34.9231 172.765 34.8886C172.872 34.857 172.877 34.875 172.724 34.875V40.875ZM176.33 39.5563C177.448 38.4385 177.704 36.9991 177.704 35.895H171.704C171.704 36.0177 171.688 35.9966 171.724 35.8845C171.764 35.7581 171.866 35.5346 172.087 35.3137L176.33 39.5563ZM177.704 35.895V30.01H171.704V35.895H177.704ZM177.704 30.01C177.704 28.9447 177.464 27.4046 176.202 26.2828L172.215 30.7672C171.922 30.5061 171.787 30.2248 171.734 30.0649C171.687 29.9234 171.704 29.883 171.704 30.01H177.704ZM176.451 26.5319C175.329 25.2699 173.789 25.03 172.724 25.03V31.03C172.851 31.03 172.81 31.047 172.669 30.9998C172.509 30.9465 172.227 30.8118 171.966 30.5181L176.451 26.5319ZM172.724 25.03H161.999V31.03H172.724V25.03ZM164.999 28.03V23.795H158.999V28.03H164.999ZM161.999 26.795H177.179V20.795H161.999V26.795ZM177.179 26.795C178.161 26.795 179.65 26.6116 180.785 25.4763L176.542 21.2337C176.825 20.9505 177.104 20.8431 177.22 20.8086C177.327 20.777 177.332 20.795 177.179 20.795V26.795ZM180.785 25.4763C181.903 24.3585 182.159 22.9191 182.159 21.815H176.159C176.159 21.9377 176.143 21.9166 176.179 21.8045C176.219 21.6781 176.321 21.4546 176.542 21.2337L180.785 25.4763ZM182.159 21.815V15.38H176.159V21.815H182.159ZM182.159 15.38C182.159 14.3147 181.919 12.7746 180.657 11.6528L176.671 16.1372C176.377 15.8761 176.242 15.5948 176.189 15.4349C176.142 15.2934 176.159 15.253 176.159 15.38H182.159ZM180.906 11.9019C179.784 10.6399 178.244 10.4 177.179 10.4V16.4C177.306 16.4 177.265 16.417 177.124 16.3698C176.964 16.3165 176.682 16.1818 176.421 15.8881L180.906 11.9019ZM177.179 10.4H151.659V16.4H177.179V10.4ZM151.659 10.4C150.554 10.4 149.115 10.6559 147.997 11.7737L152.24 16.0163C152.019 16.2372 151.796 16.3392 151.669 16.3798C151.557 16.4159 151.536 16.4 151.659 16.4V10.4ZM147.997 11.7737C146.862 12.909 146.679 14.3971 146.679 15.38H152.679C152.679 15.2266 152.697 15.232 152.665 15.3385C152.63 15.455 152.523 15.7332 152.24 16.0163L147.997 11.7737ZM146.679 15.38V51.02H152.679V15.38H146.679ZM146.679 51.02C146.679 52.0474 146.88 53.4327 147.876 54.5531L152.361 50.5669C152.569 50.8015 152.648 51.0163 152.673 51.1033C152.696 51.1819 152.679 51.1694 152.679 51.02H146.679ZM148.126 54.8022C149.246 55.7981 150.631 56 151.659 56V50C151.509 50 151.497 49.983 151.575 50.0054C151.662 50.0303 151.877 50.1093 152.112 50.3178L148.126 54.8022ZM151.659 56H177.179V50H151.659V56ZM171.209 47.5V48.05H177.209V47.5H171.209ZM174.209 45.05H155.674V51.05H174.209V45.05ZM158.674 48.05V18.35H152.674V48.05H158.674ZM155.674 21.35H174.209V15.35H155.674V21.35ZM171.209 18.35V18.9H177.209V18.35H171.209ZM174.209 15.9H156.224V21.9H174.209V15.9ZM153.224 18.9V32.705H159.224V18.9H153.224ZM156.224 35.705H169.754V29.705H156.224V35.705ZM166.754 32.705V33.255H172.754V32.705H166.754ZM169.754 30.255H156.224V36.255H169.754V30.255ZM153.224 33.255V47.5H159.224V33.255H153.224ZM156.224 50.5H174.209V44.5H156.224V50.5ZM201.109 58.94L203.23 56.8187L201.109 58.94ZM200.669 49.26L197.928 48.0416L197.869 48.1739L197.823 48.3113L200.669 49.26ZM201.274 48.435L199.341 46.1413L199.331 46.1492L199.322 46.1572L201.274 48.435ZM207.929 42.825L209.863 45.1188L210.929 44.2198V42.825H207.929ZM207.929 30.56H210.929V27.56H207.929V30.56ZM201.109 29.955L203.23 27.8337V27.8337L201.109 29.955ZM200.669 20.165L197.928 18.9466L197.869 19.0789L197.823 19.2163L200.669 20.165ZM201.274 19.34L199.338 17.0485L199.33 17.0553L199.322 17.0622L201.274 19.34ZM208.369 13.345L206.495 11.0024L206.464 11.0275L206.433 11.0535L208.369 13.345ZM209.084 13.015L209.812 15.9254L209.924 15.8975L210.033 15.8611L209.084 13.015ZM235.869 23.245L233.128 22.0266L233.069 22.1589L233.023 22.2963L235.869 23.245ZM235.319 24.07L237.249 26.3667L237.26 26.3573L237.272 26.3478L235.319 24.07ZM228.774 29.57L226.844 27.2733L225.774 28.1724V29.57H228.774ZM228.774 41.945H225.774V44.945H228.774V41.945ZM235.484 42.55L233.363 44.6713L233.363 44.6713L235.484 42.55ZM235.869 52.23L233.128 51.0116L233.069 51.1439L233.023 51.2813L235.869 52.23ZM235.319 53.055L237.236 55.3626L237.254 55.3478L237.272 55.3328L235.319 53.055ZM228.169 58.995L226.252 56.6874L226.146 56.7758L226.048 56.8737L228.169 58.995ZM227.454 59.38L226.505 56.534L226.453 56.5515L226.401 56.571L227.454 59.38ZM235.044 52.56L232.923 50.4387L232.923 50.4387L235.044 52.56ZM235.044 42.99L232.802 44.9831L232.919 45.115L233.051 45.2322L235.044 42.99ZM228.224 42.495H225.224V45.495H228.224V42.495ZM228.224 24.015V21.015H225.224V24.015H228.224ZM235.044 23.575L232.923 21.4537L232.923 21.4537L235.044 23.575ZM235.044 13.895L232.802 15.8881L232.919 16.02L233.051 16.1372L235.044 13.895ZM208.589 13.895L206.468 11.7737V11.7737L208.589 13.895ZM208.589 23.575L206.347 25.5681L206.464 25.7L206.596 25.8172L208.589 23.575ZM215.574 24.015H218.574V21.015H215.574V24.015ZM215.574 42.495V45.495H218.574V42.495H215.574ZM208.589 42.99L210.71 45.1113V45.1113L208.589 42.99ZM208.589 52.56L206.347 54.5531L206.464 54.685L206.596 54.8022L208.589 52.56ZM230.589 48.05V51.05H233.589V48.05H230.589ZM213.099 48.05H210.099V51.05H213.099V48.05ZM213.099 47.5V44.5H210.099V47.5H213.099ZM221.624 47.5V50.5H224.624V47.5H221.624ZM221.624 18.9H224.624V15.9H221.624V18.9ZM213.099 18.9H210.099V21.9H213.099V18.9ZM213.099 18.35V15.35H210.099V18.35H213.099ZM230.589 18.35H233.589V15.35H230.589V18.35ZM230.589 18.9V21.9H233.589V18.9H230.589ZM222.174 18.9V15.9H219.174V18.9H222.174ZM222.174 47.5H219.174V50.5H222.174V47.5ZM230.589 47.5H233.589V44.5H230.589V47.5ZM226.464 56.545H203.034V62.545H226.464V56.545ZM203.034 56.545C202.811 56.545 202.748 56.5179 202.792 56.5318C202.85 56.5499 203.034 56.6224 203.23 56.8187L198.988 61.0613C200.195 62.2682 201.78 62.545 203.034 62.545V56.545ZM203.23 56.8187C203.427 57.015 203.499 57.1991 203.517 57.2568C203.531 57.3008 203.504 57.2384 203.504 57.015H197.504C197.504 58.2687 197.781 59.8545 198.988 61.0613L203.23 56.8187ZM203.504 57.015V50.47H197.504V57.015H203.504ZM203.504 50.47C203.504 50.345 203.512 50.2623 203.518 50.2153C203.524 50.168 203.528 50.1701 203.515 50.2087L197.823 48.3113C197.581 49.037 197.504 49.7816 197.504 50.47H203.504ZM203.411 50.4784C203.402 50.4981 203.383 50.5348 203.35 50.5803C203.316 50.6264 203.274 50.672 203.227 50.7128L199.322 46.1572C198.704 46.6869 198.243 47.3326 197.928 48.0416L203.411 50.4784ZM203.208 50.7287L209.863 45.1188L205.996 40.5312L199.341 46.1413L203.208 50.7287ZM210.929 42.825V30.56H204.929V42.825H210.929ZM207.929 27.56H203.034V33.56H207.929V27.56ZM203.034 27.56C202.811 27.56 202.748 27.5329 202.792 27.5468C202.85 27.5649 203.034 27.6374 203.23 27.8337L198.988 32.0763C200.195 33.2832 201.78 33.56 203.034 33.56V27.56ZM203.23 27.8337C203.427 28.03 203.499 28.2141 203.517 28.2718C203.531 28.3158 203.504 28.2534 203.504 28.03H197.504C197.504 29.2837 197.781 30.8695 198.988 32.0763L203.23 27.8337ZM203.504 28.03V21.375H197.504V28.03H203.504ZM203.504 21.375C203.504 21.25 203.512 21.1673 203.518 21.1203C203.524 21.073 203.528 21.0751 203.515 21.1137L197.823 19.2163C197.581 19.942 197.504 20.6866 197.504 21.375H203.504ZM203.411 21.3834C203.402 21.4031 203.383 21.4398 203.35 21.4853C203.316 21.5314 203.274 21.577 203.227 21.6178L199.322 17.0622C198.704 17.5919 198.243 18.2376 197.928 18.9466L203.411 21.3834ZM203.21 21.6315L210.305 15.6365L206.433 11.0535L199.338 17.0485L203.21 21.6315ZM210.243 15.6876C210.007 15.8762 209.821 15.9231 209.812 15.9254L208.357 10.1046C207.761 10.2536 207.098 10.5204 206.495 11.0024L210.243 15.6876ZM210.033 15.8611C210.041 15.8584 210.067 15.85 210.129 15.85V9.85C209.458 9.85 208.788 9.95158 208.136 10.1689L210.033 15.8611ZM210.129 15.85H233.559V9.85H210.129V15.85ZM233.559 15.85C233.783 15.85 233.845 15.8771 233.801 15.8632C233.743 15.8451 233.559 15.7726 233.363 15.5763L237.605 11.3337C236.399 10.1268 234.813 9.85 233.559 9.85V15.85ZM233.363 15.5763C233.167 15.38 233.094 15.1959 233.076 15.1382C233.062 15.0942 233.089 15.1566 233.089 15.38H239.089C239.089 14.1263 238.812 12.5405 237.605 11.3337L233.363 15.5763ZM233.089 15.38V22.035H239.089V15.38H233.089ZM233.089 22.035C233.089 22.0775 233.088 22.1087 233.086 22.1296C233.084 22.1505 233.082 22.1596 233.083 22.1583C233.083 22.1562 233.092 22.1067 233.128 22.0266L238.611 24.4634C238.973 23.6481 239.089 22.8036 239.089 22.035H233.089ZM233.023 22.2963C233.048 22.2216 233.089 22.1304 233.153 22.0346C233.217 21.9385 233.291 21.8568 233.367 21.7922L237.272 26.3478C237.953 25.7633 238.439 25.0238 238.715 24.1937L233.023 22.2963ZM233.389 21.7733L226.844 27.2733L230.704 31.8667L237.249 26.3667L233.389 21.7733ZM225.774 29.57V41.945H231.774V29.57H225.774ZM228.774 44.945H233.559V38.945H228.774V44.945ZM233.559 44.945C233.783 44.945 233.845 44.9721 233.801 44.9582C233.743 44.9401 233.559 44.8676 233.363 44.6713L237.605 40.4287C236.399 39.2218 234.813 38.945 233.559 38.945V44.945ZM233.363 44.6713C233.167 44.475 233.094 44.2909 233.076 44.2332C233.062 44.1892 233.089 44.2516 233.089 44.475H239.089C239.089 43.2213 238.812 41.6355 237.605 40.4287L233.363 44.6713ZM233.089 44.475V51.02H239.089V44.475H233.089ZM233.089 51.02C233.089 51.0625 233.088 51.0937 233.086 51.1146C233.084 51.1355 233.082 51.1446 233.083 51.1433C233.083 51.1412 233.092 51.0917 233.128 51.0116L238.611 53.4484C238.973 52.6331 239.089 51.7886 239.089 51.02H233.089ZM233.023 51.2813C233.048 51.2066 233.089 51.1154 233.153 51.0196C233.217 50.9235 233.291 50.8418 233.367 50.7772L237.272 55.3328C237.953 54.7483 238.439 54.0088 238.715 53.1787L233.023 51.2813ZM233.402 50.7474L226.252 56.6874L230.086 61.3026L237.236 55.3626L233.402 50.7474ZM226.048 56.8737C226.233 56.6887 226.394 56.5944 226.458 56.5598C226.526 56.5231 226.551 56.5189 226.505 56.534L228.403 62.226C228.913 62.056 229.663 61.7436 230.29 61.1163L226.048 56.8737ZM226.401 56.571C226.496 56.5352 226.531 56.545 226.464 56.545V62.545C227.13 62.545 227.825 62.4448 228.508 62.189L226.401 56.571ZM210.129 56H233.559V50H210.129V56ZM233.559 56C234.542 56 236.03 55.8166 237.166 54.6813L232.923 50.4387C233.206 50.1556 233.484 50.0481 233.601 50.0136C233.707 49.982 233.713 50 233.559 50V56ZM237.165 54.6813C238.283 53.5635 238.539 52.1241 238.539 51.02H232.539C232.539 51.1427 232.523 51.1216 232.559 51.0095C232.6 50.8831 232.702 50.6596 232.923 50.4387L237.165 54.6813ZM238.539 51.02V44.475H232.539V51.02H238.539ZM238.539 44.475C238.539 43.4097 238.299 41.8696 237.037 40.7478L233.051 45.2322C232.757 44.9711 232.623 44.6898 232.569 44.5299C232.522 44.3884 232.539 44.348 232.539 44.475H238.539ZM237.286 40.9969C236.165 39.7349 234.624 39.495 233.559 39.495V45.495C233.686 45.495 233.646 45.512 233.504 45.4648C233.344 45.4115 233.063 45.2768 232.802 44.9831L237.286 40.9969ZM233.559 39.495H228.224V45.495H233.559V39.495ZM231.224 42.495V24.015H225.224V42.495H231.224ZM228.224 27.015H233.559V21.015H228.224V27.015ZM233.559 27.015C234.542 27.015 236.03 26.8316 237.166 25.6963L232.923 21.4537C233.206 21.1706 233.484 21.0631 233.601 21.0286C233.707 20.997 233.713 21.015 233.559 21.015V27.015ZM237.165 25.6963C238.283 24.5785 238.539 23.1391 238.539 22.035H232.539C232.539 22.1577 232.523 22.1366 232.559 22.0245C232.6 21.8981 232.702 21.6746 232.923 21.4537L237.165 25.6963ZM238.539 22.035V15.38H232.539V22.035H238.539ZM238.539 15.38C238.539 14.3147 238.299 12.7746 237.037 11.6528L233.051 16.1372C232.757 15.8761 232.623 15.5948 232.569 15.4349C232.522 15.2934 232.539 15.253 232.539 15.38H238.539ZM237.286 11.9019C236.165 10.6399 234.624 10.4 233.559 10.4V16.4C233.686 16.4 233.646 16.417 233.504 16.3698C233.344 16.3165 233.063 16.1818 232.802 15.8881L237.286 11.9019ZM233.559 10.4H210.129V16.4H233.559V10.4ZM210.129 10.4C209.025 10.4 207.586 10.6559 206.468 11.7737L210.71 16.0163C210.49 16.2372 210.266 16.3392 210.14 16.3798C210.028 16.4159 210.006 16.4 210.129 16.4V10.4ZM206.468 11.7737C205.333 12.909 205.149 14.3971 205.149 15.38H211.149C211.149 15.2266 211.167 15.232 211.136 15.3385C211.101 15.455 210.994 15.7332 210.711 16.0163L206.468 11.7737ZM205.149 15.38V22.035H211.149V15.38H205.149ZM205.149 22.035C205.149 23.0624 205.351 24.4477 206.347 25.5681L210.831 21.5819C211.04 21.8165 211.119 22.0313 211.144 22.1183C211.166 22.1969 211.149 22.1844 211.149 22.035H205.149ZM206.596 25.8172C207.716 26.8131 209.102 27.015 210.129 27.015V21.015C209.98 21.015 209.967 20.998 210.046 21.0204C210.133 21.0453 210.348 21.1243 210.582 21.3328L206.596 25.8172ZM210.129 27.015H215.574V21.015H210.129V27.015ZM212.574 24.015V42.495H218.574V24.015H212.574ZM215.574 39.495H210.129V45.495H215.574V39.495ZM210.129 39.495C209.025 39.495 207.586 39.7509 206.468 40.8687L210.71 45.1113C210.49 45.3322 210.266 45.4342 210.14 45.4748C210.028 45.5109 210.006 45.495 210.129 45.495V39.495ZM206.468 40.8687C205.333 42.004 205.149 43.4921 205.149 44.475H211.149C211.149 44.3216 211.167 44.327 211.136 44.4335C211.101 44.55 210.994 44.8282 210.71 45.1113L206.468 40.8687ZM205.149 44.475V51.02H211.149V44.475H205.149ZM205.149 51.02C205.149 52.0474 205.351 53.4327 206.347 54.5531L210.831 50.5669C211.04 50.8015 211.119 51.0163 211.144 51.1033C211.166 51.1819 211.149 51.1694 211.149 51.02H205.149ZM206.596 54.8022C207.716 55.7981 209.102 56 210.129 56V50C209.98 50 209.967 49.983 210.046 50.0054C210.133 50.0303 210.348 50.1093 210.582 50.3178L206.596 54.8022ZM230.589 45.05H213.099V51.05H230.589V45.05ZM216.099 48.05V47.5H210.099V48.05H216.099ZM213.099 50.5H221.624V44.5H213.099V50.5ZM224.624 47.5V18.9H218.624V47.5H224.624ZM221.624 15.9H213.099V21.9H221.624V15.9ZM216.099 18.9V18.35H210.099V18.9H216.099ZM213.099 21.35H230.589V15.35H213.099V21.35ZM227.589 18.35V18.9H233.589V18.35H227.589ZM230.589 15.9H222.174V21.9H230.589V15.9ZM219.174 18.9V47.5H225.174V18.9H219.174ZM222.174 50.5H230.589V44.5H222.174V50.5ZM227.589 47.5V48.05H233.589V47.5H227.589ZM248.578 58.94L250.7 56.8187L248.578 58.94ZM247.973 30.56H250.973V27.56H247.973V30.56ZM238.513 29.955L240.635 27.8337V27.8337L238.513 29.955ZM238.073 20.165L235.332 18.9466L235.273 19.0789L235.227 19.2163L238.073 20.165ZM238.678 19.34L236.742 17.0485L236.734 17.0553L236.726 17.0622L238.678 19.34ZM245.773 13.345L243.899 11.0024L243.868 11.0275L243.837 11.0535L245.773 13.345ZM246.488 13.015L247.216 15.9254L247.328 15.8975L247.437 15.8611L246.488 13.015ZM278.498 13.455L280.62 11.3337L280.62 11.3337L278.498 13.455ZM278.883 23.245L276.142 22.0266L276.083 22.1589L276.037 22.2963L278.883 23.245ZM278.333 24.07L280.251 26.3776L280.268 26.3628L280.286 26.3478L278.333 24.07ZM271.183 30.01L269.266 27.7024L269.16 27.7908L269.062 27.8887L271.183 30.01ZM270.468 30.395L269.52 27.549L269.467 27.5665L269.415 27.586L270.468 30.395ZM269.038 30.56V27.56H266.038V30.56H269.038ZM268.818 52.23L266.077 51.0116L266.018 51.1439L265.972 51.2813L268.818 52.23ZM268.268 53.055L270.186 55.3626L270.203 55.3478L270.221 55.3328L268.268 53.055ZM261.118 58.995L259.201 56.6874L259.095 56.7758L258.997 56.8737L261.118 58.995ZM260.403 59.38L259.455 56.534L259.402 56.5515L259.35 56.571L260.403 59.38ZM267.993 52.56L265.872 50.4387V50.4387L267.993 52.56ZM268.488 24.015V21.015H265.488V24.015H268.488ZM278.058 13.895L275.816 15.8881L275.934 16.02L276.065 16.1372L278.058 13.895ZM245.993 13.895L243.872 11.7737V11.7737L245.993 13.895ZM245.993 23.575L243.751 25.5681L243.868 25.7L244 25.8172L245.993 23.575ZM255.618 24.015H258.618V21.015H255.618V24.015ZM256.058 52.56L253.816 54.5531L253.933 54.685L254.065 54.8022L256.058 52.56ZM261.778 48.05H258.778V51.05H261.778V48.05ZM261.778 18.9H264.778V15.9H261.778V18.9ZM250.503 18.9H247.503V21.9H250.503V18.9ZM250.503 18.35V15.35H247.503V18.35H250.503ZM273.603 18.35H276.603V15.35H273.603V18.35ZM273.603 18.9V21.9H276.603V18.9H273.603ZM262.328 18.9V15.9H259.328V18.9H262.328ZM262.328 48.05V51.05H265.328V48.05H262.328ZM259.413 56.545H250.503V62.545H259.413V56.545ZM250.503 56.545C250.28 56.545 250.218 56.5179 250.262 56.5318C250.319 56.5499 250.503 56.6224 250.7 56.8187L246.457 61.0613C247.664 62.2682 249.25 62.545 250.503 62.545V56.545ZM250.7 56.8187C250.896 57.015 250.969 57.1991 250.987 57.2568C251.001 57.3008 250.973 57.2384 250.973 57.015H244.973C244.973 58.2687 245.25 59.8545 246.457 61.0613L250.7 56.8187ZM250.973 57.015V30.56H244.973V57.015H250.973ZM247.973 27.56H240.438V33.56H247.973V27.56ZM240.438 27.56C240.215 27.56 240.153 27.5329 240.197 27.5468C240.254 27.5649 240.438 27.6374 240.635 27.8337L236.392 32.0763C237.599 33.2832 239.185 33.56 240.438 33.56V27.56ZM240.635 27.8337C240.831 28.03 240.904 28.2141 240.922 28.2718C240.936 28.3158 240.908 28.2534 240.908 28.03H234.908C234.908 29.2837 235.185 30.8695 236.392 32.0763L240.635 27.8337ZM240.908 28.03V21.375H234.908V28.03H240.908ZM240.908 21.375C240.908 21.25 240.916 21.1673 240.922 21.1203C240.929 21.073 240.932 21.0751 240.92 21.1137L235.227 19.2163C234.986 19.942 234.908 20.6866 234.908 21.375H240.908ZM240.815 21.3834C240.806 21.4031 240.787 21.4398 240.754 21.4853C240.72 21.5314 240.678 21.577 240.631 21.6178L236.726 17.0622C236.108 17.5919 235.647 18.2376 235.332 18.9466L240.815 21.3834ZM240.615 21.6315L247.71 15.6365L243.837 11.0535L236.742 17.0485L240.615 21.6315ZM247.648 15.6876C247.412 15.8762 247.225 15.9231 247.216 15.9254L245.761 10.1046C245.165 10.2536 244.502 10.5204 243.899 11.0024L247.648 15.6876ZM247.437 15.8611C247.445 15.8584 247.472 15.85 247.533 15.85V9.85C246.862 9.85 246.192 9.95158 245.54 10.1689L247.437 15.8611ZM247.533 15.85H276.573V9.85H247.533V15.85ZM276.573 15.85C276.797 15.85 276.859 15.8771 276.815 15.8632C276.758 15.8451 276.573 15.7726 276.377 15.5763L280.62 11.3337C279.413 10.1268 277.827 9.85 276.573 9.85V15.85ZM276.377 15.5763C276.181 15.38 276.108 15.1959 276.09 15.1382C276.076 15.0942 276.103 15.1566 276.103 15.38H282.103C282.103 14.1263 281.827 12.5405 280.62 11.3337L276.377 15.5763ZM276.103 15.38V22.035H282.103V15.38H276.103ZM276.103 22.035C276.103 22.0775 276.102 22.1087 276.1 22.1296C276.098 22.1505 276.097 22.1596 276.097 22.1583C276.097 22.1562 276.106 22.1067 276.142 22.0266L281.625 24.4634C281.987 23.6481 282.103 22.8036 282.103 22.035H276.103ZM276.037 22.2963C276.062 22.2216 276.104 22.1304 276.167 22.0346C276.231 21.9385 276.306 21.8568 276.381 21.7922L280.286 26.3478C280.968 25.7633 281.453 25.0238 281.73 24.1937L276.037 22.2963ZM276.416 21.7624L269.266 27.7024L273.101 32.3176L280.251 26.3776L276.416 21.7624ZM269.062 27.8887C269.247 27.7037 269.408 27.6094 269.472 27.5748C269.541 27.5381 269.565 27.5339 269.52 27.549L271.417 33.241C271.927 33.071 272.677 32.7586 273.305 32.1313L269.062 27.8887ZM269.415 27.586C269.511 27.5502 269.546 27.56 269.478 27.56V33.56C270.145 33.56 270.84 33.4598 271.522 33.204L269.415 27.586ZM269.478 27.56H269.038V33.56H269.478V27.56ZM266.038 30.56V51.02H272.038V30.56H266.038ZM266.038 51.02C266.038 51.0625 266.037 51.0937 266.035 51.1146C266.033 51.1355 266.032 51.1446 266.032 51.1433C266.032 51.1412 266.041 51.0917 266.077 51.0116L271.56 53.4484C271.922 52.6331 272.038 51.7886 272.038 51.02H266.038ZM265.972 51.2813C265.997 51.2066 266.039 51.1154 266.102 51.0196C266.166 50.9235 266.241 50.8418 266.316 50.7772L270.221 55.3328C270.903 54.7483 271.388 54.0088 271.665 53.1787L265.972 51.2813ZM266.351 50.7474L259.201 56.6874L263.036 61.3026L270.186 55.3626L266.351 50.7474ZM258.997 56.8737C259.182 56.6887 259.343 56.5944 259.407 56.5598C259.476 56.5231 259.5 56.5189 259.455 56.534L261.352 62.2261C261.862 62.056 262.612 61.7436 263.24 61.1163L258.997 56.8737ZM259.35 56.571C259.446 56.5352 259.481 56.545 259.413 56.545V62.545C260.08 62.545 260.775 62.4448 261.457 62.189L259.35 56.571ZM266.508 56C267.491 56 268.98 55.8166 270.115 54.6813L265.872 50.4387C266.155 50.1556 266.434 50.0481 266.55 50.0136C266.656 49.982 266.662 50 266.508 50V56ZM270.115 54.6813C271.233 53.5635 271.488 52.1241 271.488 51.02H265.488C265.488 51.1427 265.473 51.1216 265.509 51.0095C265.549 50.8831 265.651 50.6596 265.872 50.4387L270.115 54.6813ZM271.488 51.02V24.015H265.488V51.02H271.488ZM268.488 27.015H276.573V21.015H268.488V27.015ZM276.573 27.015C277.556 27.015 279.044 26.8316 280.18 25.6963L275.937 21.4537C276.22 21.1705 276.499 21.0631 276.615 21.0286C276.721 20.997 276.727 21.015 276.573 21.015V27.015ZM280.18 25.6963C281.298 24.5785 281.553 23.1391 281.553 22.035H275.553C275.553 22.1577 275.538 22.1366 275.574 22.0245C275.614 21.8981 275.716 21.6746 275.937 21.4537L280.18 25.6963ZM281.553 22.035V15.38H275.553V22.035H281.553ZM281.553 15.38C281.553 14.3147 281.314 12.7746 280.052 11.6528L276.065 16.1372C275.772 15.8761 275.637 15.5948 275.584 15.4349C275.536 15.2934 275.553 15.253 275.553 15.38H281.553ZM280.301 11.9019C279.179 10.6399 277.639 10.4 276.573 10.4V16.4C276.701 16.4 276.66 16.417 276.519 16.3698C276.359 16.3165 276.077 16.1818 275.816 15.8881L280.301 11.9019ZM276.573 10.4H247.533V16.4H276.573V10.4ZM247.533 10.4C246.429 10.4 244.99 10.6559 243.872 11.7737L248.115 16.0163C247.894 16.2372 247.67 16.3392 247.544 16.3798C247.432 16.4159 247.411 16.4 247.533 16.4V10.4ZM243.872 11.7737C242.737 12.909 242.553 14.3971 242.553 15.38H248.553C248.553 15.2266 248.571 15.232 248.54 15.3385C248.505 15.455 248.398 15.7332 248.115 16.0163L243.872 11.7737ZM242.553 15.38V22.035H248.553V15.38H242.553ZM242.553 22.035C242.553 23.0624 242.755 24.4477 243.751 25.5681L248.236 21.5819C248.444 21.8165 248.523 22.0313 248.548 22.1183C248.57 22.1969 248.553 22.1844 248.553 22.035H242.553ZM244 25.8172C245.121 26.8131 246.506 27.015 247.533 27.015V21.015C247.384 21.015 247.372 20.998 247.45 21.0204C247.537 21.0453 247.752 21.1243 247.987 21.3328L244 25.8172ZM247.533 27.015H255.618V21.015H247.533V27.015ZM252.618 24.015V51.02H258.618V24.015H252.618ZM252.618 51.02C252.618 52.0474 252.82 53.4327 253.816 54.5531L258.301 50.5669C258.509 50.8015 258.588 51.0163 258.613 51.1033C258.635 51.1819 258.618 51.1694 258.618 51.02H252.618ZM254.065 54.8022C255.186 55.7981 256.571 56 257.598 56V50C257.449 50 257.437 49.983 257.515 50.0054C257.602 50.0303 257.817 50.1093 258.052 50.3178L254.065 54.8022ZM257.598 56H266.508V50H257.598V56ZM264.778 48.05V18.9H258.778V48.05H264.778ZM261.778 15.9H250.503V21.9H261.778V15.9ZM253.503 18.9V18.35H247.503V18.9H253.503ZM250.503 21.35H273.603V15.35H250.503V21.35ZM270.603 18.35V18.9H276.603V18.35H270.603ZM273.603 15.9H262.328V21.9H273.603V15.9ZM259.328 18.9V48.05H265.328V18.9H259.328ZM262.328 45.05H261.778V51.05H262.328V45.05Z" fill="#E7EAEE"/>
</g>
<defs>
<filter id="filter0_d" x="0.219971" y="9.85001" width="285.883" height="60.695" filterUnits="userSpaceOnUse" color-interpolation-filters="sRGB">
<feFlood flood-opacity="0" result="BackgroundImageFix"/>
<feColorMatrix in="SourceAlpha" type="matrix" values="0 0 0 0 0 0 0 0 0 0 0 0 0 0 0 0 0 0 127 0"/>
<feOffset dy="4"/>
<feGaussianBlur stdDeviation="2"/>
<feColorMatrix type="matrix" values="0 0 0 0 0 0 0 0 0 0 0 0 0 0 0 0 0 0 0.25 0"/>
<feBlend mode="normal" in2="BackgroundImageFix" result="effect1_dropShadow"/>
<feBlend mode="normal" in="SourceGraphic" in2="effect1_dropShadow" result="shape"/>
</filter>
</defs>
</svg>
