<svg width="20" height="14" viewBox="0 0 20 14" fill="none" xmlns="http://www.w3.org/2000/svg">
<path d="M18.671 0.364836C18.2665 0.126508 17.8056 0.00081759 17.336 0.00081759C16.8665 0.00081759 16.4056 0.126508 16.001 0.364836L12.001 2.66484C12.0001 2.19708 11.8764 1.73777 11.6421 1.33289C11.4079 0.928018 11.0714 0.591786 10.6663 0.357862C10.2612 0.123939 9.80184 0.000532894 9.33408 1.722e-06C8.86633 -0.00052945 8.40664 0.121833 8.00105 0.354836L1.33105 4.20484C0.926226 4.43948 0.590178 4.77639 0.356571 5.18181C0.122963 5.58724 0 6.04693 0 6.51484C0 6.98274 0.122963 7.44244 0.356571 7.84786C0.590178 8.25328 0.926226 8.59019 1.33105 8.82484L8.00105 12.6748C8.4066 12.9102 8.86716 13.0341 9.33605 13.0341C9.80493 13.0341 10.2655 12.9102 10.671 12.6748C11.077 12.4416 11.414 12.105 11.6476 11.6992C11.8812 11.2935 12.0032 10.833 12.001 10.3648V10.3648L16.001 12.6748C16.4056 12.9083 16.864 13.0323 17.331 13.0348C17.8029 13.0349 18.266 12.907 18.671 12.6648C19.0769 12.434 19.4141 12.0993 19.6478 11.6951C19.8816 11.2909 20.0035 10.8318 20.001 10.3648V2.66484C20.0035 2.19791 19.8816 1.73876 19.6478 1.33454C19.4141 0.930329 19.0769 0.595631 18.671 0.364836ZM10.001 10.3648C10.0025 10.4821 9.97275 10.5977 9.91475 10.6996C9.85674 10.8016 9.77263 10.8862 9.67105 10.9448C9.56856 11.0017 9.45327 11.0316 9.33605 11.0316C9.21882 11.0316 9.10353 11.0017 9.00105 10.9448L2.33105 7.09484C2.2293 7.036 2.14483 6.95143 2.0861 6.84963C2.02737 6.74783 1.99646 6.63237 1.99646 6.51484C1.99646 6.39731 2.02737 6.28184 2.0861 6.18004C2.14483 6.07824 2.2293 5.99367 2.33105 5.93484L9.00105 2.08484C9.1029 2.02603 9.21844 1.99507 9.33605 1.99507C9.45365 1.99507 9.56919 2.02603 9.67105 2.08484C9.77263 2.14347 9.85674 2.22811 9.91475 2.33006C9.97275 2.432 10.0025 2.54756 10.001 2.66484V10.3648ZM18.001 10.3648C17.9988 10.4808 17.9664 10.5943 17.9072 10.694C17.8479 10.7938 17.7638 10.8764 17.663 10.9339C17.5622 10.9914 17.4482 11.0216 17.3321 11.0218C17.2161 11.022 17.102 10.992 17.001 10.9348L12.001 8.05484V4.97484L17.001 2.09484C17.102 2.03766 17.2161 2.00769 17.3321 2.00786C17.4482 2.00803 17.5622 2.03832 17.663 2.09578C17.7638 2.15324 17.8479 2.23589 17.9072 2.33564C17.9664 2.43539 17.9988 2.54883 18.001 2.66484V10.3648Z" fill="#FCE38A"/>
</svg>
