<?xml version="1.0" standalone="no"?>
<!DOCTYPE svg PUBLIC "-//W3C//DTD SVG 20010904//EN"
 "http://www.w3.org/TR/2001/REC-SVG-20010904/DTD/svg10.dtd">
<svg version="1.0" xmlns="http://www.w3.org/2000/svg"
 width="150.000000pt" height="150.000000pt" viewBox="0 0 150.000000 150.000000"
 preserveAspectRatio="xMidYMid meet">
<metadata>
Created by potrace 1.11, written by Peter Selinger 2001-2013
</metadata>
<g transform="translate(0.000000,150.000000) scale(0.100000,-0.100000)"
fill="#000000" stroke="none">
<path d="M181 1201 c-26 -14 -112 -83 -148 -119 -15 -16 -15 -9 -15 -141 -1
-97 1 -106 22 -123 12 -10 26 -15 31 -12 5 3 9 1 9 -4 0 -4 23 -8 50 -7 28 1
50 -1 51 -4 0 -3 1 -98 1 -211 0 -113 5 -217 10 -232 17 -48 46 -58 173 -58
70 0 115 4 115 10 0 5 4 9 8 7 9 -2 93 65 144 115 17 15 28 38 29 55 1 15 2
96 3 180 0 83 3 153 6 155 3 2 20 16 38 31 40 32 49 33 57 7 9 -27 43 -49 86
-54 l34 -3 0 -64 c1 -63 1 -64 -44 -104 -89 -79 -84 -67 -83 -188 0 -146 3
-147 305 -147 l235 0 59 44 c64 48 122 102 124 114 0 4 2 52 3 107 2 118 -11
143 -80 152 l-41 5 1 64 1 63 61 58 60 58 -1 108 c-3 161 15 152 -294 152
l-249 0 -38 -31 c-60 -47 -61 -47 -80 -15 -10 16 -27 33 -38 39 -12 5 -146 9
-298 9 -238 0 -282 -2 -307 -16z"/>
</g>
</svg>
